<?xml version="1.0" encoding="UTF-8"?>
<svg id="_レイヤー_2" data-name="レイヤー 2" xmlns="http://www.w3.org/2000/svg" viewBox="0 0 206.783765 90.7748055">
  <defs>
    <style>
      .cls-1 {
        fill: #e40012;
      }

      .cls-2 {
        fill: #1d2086;
      }
    </style>
  </defs>
  <g id="_レイヤー_1-2" data-name="レイヤー 1">
    <g>
      <path class="cls-2" d="m19.6990067,32.3041192h3.1913846c1.0438421,0,2.3657701.1796406,2.3657701,1.3936327v10.9299687s-3.5837112,1.2983069-10.0759909,1.2983069c-6.4851934,0-15.1801705-3.517536-15.1801705-13.2650314,0-9.7159525,9.0510607-13.5273518,15.752901-13.5273518,3.003101,0,6.7727397.1788231,6.7727397,1.842662v3.2552156c-2.5485421-2.0474984-3.5758375-2.4106743-7.4439455-2.4106743-3.868114,0-10.7865953,2.5075628-10.7865953,10.611703,0,8.1143579,9.2858261,12.9333503,16.9952655,9.8837644v-6.2133945c0-1.3014564-.0756296-3.7988014-1.5913588-3.7988014"/>
      <path class="cls-2" d="m68.2262196,45.2748064h8.2033968c-2.272025-.8319194-3.2024198-3.5127998-3.9461057-5.4665591-.7704685-1.9474363-6.7018403-16.1255283-7.3675345-18.0910921-.654659-1.9379878-1.6023879-1.9379878-2.3523728-1.9379878h-4.7165742c2.2728064.7428925,1.0343757,2.3247968.660958,3.4261531-.3765672,1.1226092-8.3034289,20.4040844-8.3034289,20.4040844-2.7391938-.7365936-9.6048912-10.6715671-9.6048912-10.6715671,9.1550506-2.595027,7.7330665-13.1586704-1.2061245-13.1586704h-10.2761031c2.0648325.4482599,1.8781237,2.5981765,1.8781237,4.2533362v17.5443569c0,2.412261-.7570772,3.0503793-1.9663572,3.6979459h7.5211558c-2.0640452-.9209223-1.5173099-3.0574476-1.5173099-4.0642713v-18.9245983h4.0642713c2.1617331,0,3.7625463,2.5997632,3.7625463,4.3691698,0,2.8557847-2.2602025,3.9760378-4.522773,4.8150496-2.2554782.8240337-1.0328069,2.6808804,0,4.1761379,1.0564461,1.4779234,4.0619092,5.6477624,5.8502246,7.687375,1.7977639,2.0325444,3.3741566,1.9411373,4.2454686,1.9411373h6.7884931c-2.6320514-.8319194-1.2313384-2.8660265-.8642196-3.8775624.3765672-1.0430307,2.0861035-5.3893608,2.0861035-5.3893608h10.1642244s1.2281889,3.1464985,2.3578904,5.9345333c1.1344378,2.792747.2851842,3.1535668-.9390618,3.3323899m-10.5557576-12.2314251l3.8807119-9.9318241,4.1257222,9.9318241h-8.0064341Z"/>
      <path class="cls-2" d="m150.7387886,45.2748064h8.2159947c-2.2633579-.8319194-3.207144-3.5127998-3.9453123-5.4665591-.7562959-1.9474363-6.6994722-16.1255283-7.355718-18.0910921-.6656942-1.9379878-1.6023879-1.9379878-2.3594652-1.9379878h-4.7079071c2.2665074.7428925,1.0343877,2.3247968.6641195,3.4261531-.3891771,1.1226092-8.2963546,20.4040844-8.2963546,20.4040844-.5309758,1.2021876-1.3053872,1.2313263-1.7764989,1.6654016h6.7680155c-2.6391317-.8319194-1.2155789-2.8660265-.8516097-3.8775624.3631759-1.0430307,2.0703381-5.3893608,2.0703381-5.3893608h10.191019s1.2297636,3.1464985,2.3531662,5.9345333c1.1147475,2.792747.2709995,3.1535668-.9697873,3.3323899m-10.5305498-12.2314251l3.8507678-9.9318241,4.1596092,9.9318241h-8.010377Z"/>
      <path class="cls-2" d="m121.7463977,45.7582876c.9453608-.8516097,1.7969705-1.4944401,1.7969705-4.4644716v-17.5262293c0-1.3904833-.0724741-2.9660886-1.7969705-3.5396064h7.2706219c-.7499849.6586019-1.64493,1.4889345-1.64493,3.3481614v17.7176744c0,1.5787548-.344267,3.9019889,1.7599581,4.4644716h-7.3856501Z"/>
      <path class="cls-2" d="m82.728648,25.7139171s-.0929698,14.0000623-.0929698,15.5795864c0,1.5787789.2079859,3.9019889,2.2743931,4.4644956h-6.8909173c.9508784-.8516337,1.7055995-1.4944642,1.7055995-4.4644956,0-2.9581788.1772484-16.1460119.1772484-17.5262293,0-1.3896899-.1772484-2.9652952-1.8828479-3.5396064h5.2869426l15.8222286,19.5808441v-15.9553843c0-1.0193976.197744-2.9668579-1.9679199-3.7089571h7.0665789c-.8516097.6578085-2.0923965.9233024-2.0923965,3.6231037v23.0140654s-1.9521725.3576703-5.1632594-3.4481994c-3.2095121-3.7964213-14.2426804-17.6192231-14.2426804-17.6192231"/>
      <path class="cls-1" d="m127.7611105,65.4903067c-20.7278798-17.1882733-28.6476551-37.4245458-.3048865-65.0504352.8815538-.8492536,1.7323821-.3418989,1.032813.4498467-12.4346747,13.967726-26.2732239,36.338961-.289127,63.7411051.4088674.4380181.2457916,1.3227214-.4387995.8594834"/>
      <path class="cls-2" d="m164.6316123,45.4965202c-1.9206777,0-3.4836852-1.562214-3.4836852-3.4836611,0-1.9206537,1.5630074-3.4836611,3.4836852-3.4836611,1.9206537,0,3.4836611,1.5630074,3.4836611,3.4836611,0,1.9214471-1.5630074,3.4836611-3.4836611,3.4836611m0-6.5245919c-1.6772542,0-3.0409308,1.3637007-3.0409308,3.0409308s1.3636766,3.0417002,3.0409308,3.0417002c1.6772302,0,3.0409068-1.36447,3.0409068-3.0417002s-1.3636766-3.0409308-3.0409068-3.0409308"/>
      <path class="cls-2" d="m165.4715377,43.9035566c-.0764049-.0724621-.1228778-.1284074-.1228778-.4002003v-.4514094c0-.2662633-.0827279-.6152785-.4821349-.6152785h-.9587641v1.4668882h-.6916834v-3.742832h1.7630835c.6972131,0,1.154128.4309258,1.154128,1.0146854,0,.2457796-.0819105.4726864-.2308256.6404743-.1441548.1646625-.2670566.2308256-.584529.3025183.3639452.0520025.7176727.1591329.7176727.8618515v.3789473c0,.3749804.1386492.471893.2410674.5443551h-.8051368Zm-.584529-3.158303h-.9792478v1.1068858h.8665877c.3844289,0,.6207841-.2001242.6207841-.5837837,0-.3387494-.2001001-.5231021-.5081241-.5231021"/>
    </g>
    <g>
      <path d="m4.5142337,75.0384774l1.2963867,1.1699219c-.1259766.1445312-.4321289.234375-.8105469.2705078-.449707,1.0976562-1.2241211,2.8808594-1.9624023,4.4833984h1.5483398l.6665039-.7207031,1.2421875,1.1162109c-.1259766.1621094-.3061523.2158203-.6484375.2519531-.2519531,1.9990234-.6479492,3.9619141-1.5839844,5.671875,1.6020508,1.5849609,3.9067383,1.890625,7.2739258,1.890625,1.2241211,0,3.9790039,0,5.3115234-.0361328v.2519531c-.4858398.0908203-.7739258.4863281-.8100586.9902344h-4.609375c-3.5830078,0-5.9238281-.4677734-7.5263672-2.4667969-.7021484,1.0810547-1.6386719,2.0351562-2.8989258,2.8095703l-.1621094-.2705078c1.1342773-.9003906,1.9448242-2.0166016,2.5390625-3.2763672-.5942383-.9550781-1.0805664-2.1787109-1.4765625-3.7460938l.2700195-.1259766c.3959961,1.3691406.8642578,2.4306641,1.4584961,3.2412109.6303711-1.5478516.918457-3.2949219,1.0800781-5.0771484h-1.9082031l-.4501953.9541016c-.2700195.0722656-.6123047.0537109-1.0444336-.1083984.8823242-1.9082031,1.9086914-4.375,2.5566406-6.0498047h-.5039062c-.7744141,0-1.4404297.0361328-2.1069336.1445312l-.5039062-.9726562c.972168.1806641,2.1606445.2880859,2.9169922.2880859h.2338867l.6123047-.6835938Zm9.6147461.4140625l1.3505859,1.0976562c-.1083984.1259766-.3603516.2705078-.7202148.3427734v1.6386719h.3417969l.6845703-1.0087891s.8100586.7197266,1.2783203,1.2421875c-.0541992.1982422-.1982422.2880859-.4321289.2880859h-1.8725586v2.5927734c-.0180664.1259766-.5585938.3964844-.918457.3964844h-.144043v-.5761719h-2.574707v1.8544922h2.4306641l.7202148-.9726562s.8642578.6845703,1.3681641,1.2246094c-.0537109.1982422-.1977539.2880859-.4316406.2880859h-4.0874023v1.890625h3.0786133l.8286133-1.0625s.9179688.7568359,1.4941406,1.296875c-.0537109.1972656-.2158203.2880859-.4677734.2880859h-4.9335938c0,.6835938.0541992,1.5117188.0898438,1.9257812-.0898438.2529297-.5400391.4863281-.972168.4863281-.2338867,0-.3422852-.1796875-.3422852-.359375.0541992-.6845703.1083984-1.3691406.1083984-2.0527344h-1.9985352c-.7744141,0-1.4404297.0351562-2.1069336.1435547l-.4858398-.9541016c.972168.1796875,2.1601562.2880859,2.9165039.2880859l1.6748047.0722656v-1.9628906h-1.1704102c-.7744141,0-1.4404297.0361328-2.1069336.1435547l-.4858398-.9716797c.972168.1796875,2.1606445.2880859,2.9169922.2880859l.8461914.0722656v-1.9267578h-.918457c-.7744141,0-1.4404297.0361328-2.1064453.1435547l-.5043945-.9541016c.972168.1806641,2.1606445.2880859,2.9169922.2880859l.6123047.0722656v-1.9628906h-2.269043c-.7739258,0-1.4404297.0361328-2.1064453.1445312l-.5039062-.9550781c.972168.1806641,2.1601562.2890625,2.9165039.2890625l1.9628906.0712891v-1.9267578h-.8642578c-.7744141,0-1.4404297.0361328-2.1069336.1445312l-.5039062-.9365234c.972168.1806641,2.1606445.2880859,2.9169922.2880859l.5581055.0722656v-.0722656c0-.6298828-.1264648-1.4404297-.3242188-2.0166016l2.0527344.2880859c-.0541992.2705078-.1801758.4501953-.6123047.5224609v1.2060547h2.3945312l.6123047-.7197266Zm-3.0068359,3.0791016l2.574707.0712891v-1.9267578h-2.574707v1.8554688Zm2.574707.5214844h-2.574707v1.890625h2.574707v-1.890625Z"/>
      <path d="m25.9531986,75.2718758s.7919922.6845703,1.2963867,1.1884766c-.0361328.1806641-.1982422.2705078-.4501953.2705078h-3.402832c1.65625,1.0800781.7202148,2.5566406-.090332,1.8007812-.0180664-.5761719-.2880859-1.296875-.5942383-1.8007812h-1.0258789c-.7744141,1.0263672-1.6928711,1.8544922-2.6289062,2.4121094l-.1982422-.2333984c1.0805664-1.0087891,2.1967773-2.7548828,2.9169922-4.6816406l1.5483398.7197266c-.0717773.1806641-.2880859.3066406-.6660156.234375-.1982422.3603516-.3959961.7207031-.6303711,1.0449219h3.2231445l.7021484-.9550781Zm7.184082,9.5253906s.918457.7021484,1.5126953,1.2246094c-.0361328.1972656-.2163086.2871094-.4682617.2871094h-6.1220703c1.6567383,1.3691406,4.4472656,2.3769531,6.878418,2.7734375l-.0361328.1982422c-.4501953.0898438-.8461914.4853516-.9726562,1.0263672-2.5205078-.7021484-4.9692383-2.0888672-6.4458008-3.9980469h-.0537109c0,1.3691406.1079102,3.0615234.144043,3.9794922-.144043.234375-.6484375.4863281-1.0805664.4863281-.2158203,0-.3779297-.1796875-.3779297-.3603516.0898438-1.2246094.1621094-2.4482422.1621094-3.7089844-1.746582,1.7822266-4.3393555,3.0429688-7.2924805,3.78125l-.1259766-.3056641c2.5209961-.8828125,4.753418-2.2509766,6.1938477-3.8720703h-3.5112305c-.7739258,0-1.4404297.0361328-2.1064453.1445312l-.5219727-.9541016c.972168.1796875,2.1606445.2880859,2.9165039.2880859l4.4477539.0722656v-.0722656c0-.5585938-.1264648-1.2783203-.3242188-1.8007812l2.0166016.2705078c-.0180664.2333984-.1621094.4140625-.5400391.4677734v1.0625h4.8974609l.8100586-.9902344Zm-8.5166016-6.1582031s.7924805.6484375,1.3144531,1.1162109c-.0541992.1982422-.1982422.2880859-.4501953.2880859h-2.3227539v2.6650391c.8105469-.1435547,1.6748047-.3056641,2.5390625-.4863281l.0717773.2880859c-1.2783203.46875-3.0610352,1.0986328-5.5454102,1.890625-.0541992.2158203-.1982422.3603516-.378418.3964844l-.7382812-1.3691406c.6303711-.0898438,1.6928711-.2695312,2.953125-.5039062v-2.8808594h-.0722656c-.7739258,0-1.4404297.0361328-2.1064453.1445312l-.4863281-.9541016c.9726562.1796875,2.1606445.2880859,2.9169922.2880859h1.6025391l.7021484-.8828125Zm6.9682617-.2158203l1.1704102,1.0800781c-.1083984.1083984-.2880859.1982422-.5761719.2519531v3.2412109c0,.1796875.0356445.234375.2880859.234375h.6660156c.2338867,0,.4863281,0,.5761719-.0185547.1259766,0,.1621094-.0175781.2338867-.1435547.0722656-.2167969.2524414-.9365234.3964844-1.65625h.1977539l.0541992,1.6738281c.3061523.1445312.3779297.2519531.3779297.46875,0,.4492188-.4140625.6835938-1.8725586.6835938h-.8823242c-.9179688,0-1.0800781-.2695312-1.0800781-.9902344v-3.6367188h-3.4208984v1.1699219c0,1.4941406-.4145508,3.2587891-4.0693359,4.2314453l-.144043-.2705078c2.6645508-1.0615234,3.1508789-2.4482422,3.1508789-3.9423828,0-.7744141-.1259766-1.7285156-.3242188-2.4130859l1.6025391.6845703h3.0429688l.6123047-.6484375Zm1.7285156-3.2226562s.9179688.7197266,1.4584961,1.2597656c-.0541992.1806641-.2163086.2705078-.4501953.2705078h-3.8710938c1.800293,1.0078125.9179688,2.5742188.0175781,1.8544922-.0717773-.5947266-.4677734-1.3505859-.8642578-1.8544922h-1.2602539c-.6660156.7919922-1.3862305,1.4580078-2.1245117,1.9082031l-.2158203-.234375c.9179688-.9355469,1.9082031-2.5019531,2.5566406-4.1953125l1.5483398.6669922c-.0717773.1796875-.3061523.3242188-.6660156.2695312-.2163086.3779297-.4501953.7382812-.7026367,1.0810547h3.8173828l.7563477-1.0263672Zm-5.2216797,5.3115234c3.3310547.5761719,2.6645508,2.8623047,1.5844727,2.1787109-.2158203-.7207031-1.0263672-1.5849609-1.746582-2.0166016l.1621094-.1621094Z"/>
      <path d="m51.2095462,83.3744149s.9902344.7744141,1.6020508,1.3681641c-.0537109.1982422-.2158203.2880859-.449707.2880859h-6.3740234c1.6025391,1.890625,4.4291992,3.3857422,7.0039062,3.9619141l-.0361328.2158203c-.4677734.0898438-.8818359.4863281-1.0083008,1.0800781-2.6108398-.9541016-5.0234375-2.7910156-6.409668-5.2578125h-.1079102v.9726562c0,1.4404297.1079102,3.2412109.144043,4.2314453-.144043.234375-.6665039.4863281-1.1166992.4863281-.2158203,0-.4140625-.1806641-.4140625-.3603516.1079102-1.5488281.1982422-3.0966797.1982422-4.6816406v-.2519531c-1.6923828,2.1611328-4.3032227,3.8535156-7.328125,4.9150391l-.1621094-.2871094c2.574707-1.2070312,4.7895508-3.0615234,6.1757812-5.0244141h-3.5830078c-.7744141,0-1.4404297.0361328-2.1069336.1445312l-.4858398-.9541016c.972168.1796875,2.1606445.2880859,2.9169922.2880859l4.5732422.0712891v-.0712891c0-.8105469-.1259766-1.8183594-.3242188-2.5205078l2.1245117.2871094c-.0356445.2529297-.1977539.4150391-.6118164.46875v1.7646484h4.9155273l.8642578-1.1347656Zm-2.9711914-8.1738281l1.3144531,1.3134766c-.144043.1445312-.3242188.1982422-.7924805.2167969-.7739258,1.1884766-1.7285156,2.2324219-2.8808594,3.1142578,1.9267551,1.0087891,4.3393555,1.5849609,6.9140625,1.8730469v.1982422c-.5219727.1074219-.8818359.5039062-1.0258789,1.0800781-2.6650391-.4677734-4.9516602-1.2607422-6.734375-2.5390625-2.1064453,1.3867188-4.753418,2.3769531-7.9223633,2.8994141l-.1079102-.3066406c2.7910156-.7021484,5.2578125-1.7822266,7.2202148-3.2402344-.828125-.7021484-1.4946289-1.53125-2.034668-2.5029297-1.2783203,1.2783203-2.8447266,2.4482422-4.4472656,3.1865234l-.1801758-.2519531c2.1606445-1.3681641,4.3032227-3.7988281,5.3476562-6.0498047l1.8007812.6484375c-.0722656.1796875-.2163086.2519531-.6303711.1796875-.2163086.3242188-.4501953.6484375-.7202148.9726562h3.9970703l.8823242-.7919922Zm-5.3295898,1.3320312c-.144043.1621094-.2880859.3242188-.4321289.4677734.6123047.9003906,1.4223633,1.6572266,2.3950195,2.2871094.972168-.8105469,1.7822266-1.7470703,2.3945312-2.7548828h-4.3574219Z"/>
      <path d="m58.3340579,86.0033211c0,1.4404297.1079102,3.2412109.144043,4.2314453-.144043.1796875-.6123047.4863281-1.0444336.4863281-.2158203,0-.4140625-.1806641-.4140625-.3603516.1079102-1.5488281.1982422-3.0966797.1982422-4.6816406v-5.0771484c-.6665039,1.0800781-1.4047852,2.0341797-2.1606445,2.8261719l-.234375-.1796875c1.4765625-2.1601562,2.9892578-5.5820312,3.8354492-9.0029297l1.7641602.6484375c-.0717773.1982422-.3056641.3417969-.684082.3242188-.4501953,1.3144531-.9902344,2.5927734-1.6025391,3.7626953l.7202148.3066406c-.0537109.1621094-.2158203.2880859-.5219727.3242188v6.3916016Zm10.6772461-8.6601562s.9003906.7734375,1.4584961,1.3144531c-.0361328.1972656-.1982422.2880859-.4501953.2880859h-4.3574219v4.3925781h2.9887695l.8105469-1.0800781s.9541016.7558594,1.4941406,1.3320312c-.0356445.1982422-.1977539.2880859-.4501953.2880859h-4.8432617v2.0712891c0,1.4404297.1079102,3.2402344.1440398,4.2314453-.1440398.2695312-.647946.5214844-1.0624968.5214844-.2519531,0-.449707-.1796875-.449707-.3603516.1079102-1.5478516.1977539-3.0966797.1977539-4.6806641v-1.7832031h-2.9169922c-.7739258,0-1.4404297.0361328-2.1064453.1445312l-.4863281-.9726562c.9726562.1806641,2.1611328.2880859,2.9169922.2880859l2.5927734.0722656v-4.4648438h-2.8447266c-.6484375,1.3857422-1.4042969,2.5927734-2.2866211,3.5107422l-.2163086-.1806641c1.0083008-1.7285156,1.9448242-4.375,2.3950195-7.09375l1.7822266.5947266c-.0717773.1972656-.2700195.359375-.6660156.3417969-.2163086.7919922-.4682617,1.5664062-.7924805,2.3046875l2.6289062.0722656v-.8105469c0-1.0800781-.1259766-2.4306641-.3242188-3.3310547l2.1069336.3056641c-.0541992.2529297-.1621094.4326172-.6123047.4863281v3.2773438h2.5209961l.828125-1.0800781Z"/>
      <path d="m76.4239017,86.0033211c0,1.4404297.1083984,3.2412109.144043,4.2314453-.1796875.1982422-.6479492.4863281-1.0620117.4863281-.1982422,0-.3959961-.1806641-.3959961-.3603516.1079102-1.5488281.1977539-3.0966797.1977539-4.6816406v-4.9511719c-.7021484,1.0986328-1.4765625,2.0703125-2.2685547,2.8623047l-.2338867-.1796875c1.5483398-2.1962891,3.1147461-5.671875,4.0151367-9.1650391l1.800293.5947266c-.0717773.2158203-.2700195.3603516-.6660156.3417969-.4863281,1.4042969-1.0805664,2.7548828-1.746582,3.9970703l.7382812.3066406c-.0541992.1435547-.2163086.2695312-.5224609.3056641v6.2119141Zm9.3989258-7.1298828h.8823242l.7924805-1.0800781s.8999023.7734375,1.4223633,1.3320312c-.0361328.1982422-.2163086.2880859-.4501953.2880859h-2.6469727v9.3984375c0,1.0087891-.2338867,1.6748047-2.2148438,1.890625-.0898438-.4140625-.2338867-.7197266-.5400391-.9179688-.3598633-.2158203-.9902344-.3779297-2.0527344-.5400391v-.2880859s2.5927734.2158203,3.097168.2158203c.4140625,0,.5043945-.1435547.5043945-.4863281v-9.2724609h-4.609375c-.7744141,0-1.4404297.0361328-2.1069336.1435547l-.4858398-.9716797c.972168.1796875,2.1601562.2880859,2.9165039.2880859l4.2856445.0722656v-1.2431641c0-1.0800781-.1264648-2.4306641-.3242188-3.3310547l2.1245117.3066406c-.0361328.2695312-.1801758.4316406-.5942383.4677734v3.7275391Zm-6.8959961,2.3769531c4.3212891,2.4482422,3.4389648,5.3476562,2.1606445,4.3388672-.2880859-1.3320312-1.4584961-3.0791016-2.3588867-4.2128906l.1982422-.1259766Z"/>
      <path d="m104.2007572,79.3773445s1.0263672.7919922,1.6206055,1.3867188c-.0356445.1982422-.2158203.2880859-.4682617.2880859h-5.9052734v8.2646484h4.8251953l.9003906-1.1708984s1.0263672.8105469,1.6381836,1.4042969c-.0537109.1982422-.1977539.2880859-.449707.2880859h-13.0180664c-.7744141,0-1.4404297.0361328-2.1069336.1445312l-.5039062-.9541016c.972168.1796875,2.1606445.2880859,2.9169922.2880859l4.609375.0712891v-8.3359375h-3.8710938c-.7744141,0-1.4404297.0361328-2.1069336.1435547l-.5219727-.9716797c.972168.1796875,2.1606445.2880859,2.9169922.2880859l3.5830078.0712891v-3.078125c0-1.0810547-.1259766-2.4306641-.3242188-3.3310547l2.1064453.3056641c-.0356445.2519531-.1796875.4326172-.59375.5039062v5.5283203h3.8886719l.8642578-1.1347656Z"/>
      <path d="m113.5225345,78.6390633s.8461914.7744141,1.3325195,1.296875c-.0541992.1972656-.2163086.2880859-.4326172.2880859h-2.2143555v5.7070312c.828125-.3779297,1.7104492-.7919922,2.6108398-1.2060547l.1079102.2519531c-1.2241211.8105469-2.9169922,2.0351562-5.1137695,3.4033203-.0537109.2158203-.1616211.3955078-.3237305.4863281l-.684082-1.53125c.4858398-.1611328,1.3139648-.4853516,2.3046875-.9179688v-6.1933594c-.7026367,0-1.296875.0361328-1.890625.1435547l-.4863281-.9726562c.7919922.1806641,1.7827148.2890625,2.3769531.2890625v.0712891-1.890625c0-1.0800781-.1264648-2.4306641-.3242188-3.3310547l2.0527344.2880859c-.0541992.2529297-.1801758.4140625-.6303711.46875v4.3935547h.5942383l.7202148-1.0449219Zm9.6328125-1.2783203l1.2963867,1.0800781c-.1079102.1445312-.3242188.234375-.6660156.2880859-.0541992,4.7353516-.2524414,6.5-.8105469,7.1123047-.3598633.4140625-.9003906.5761719-1.4404297.5761719,0-.3417969-.0180664-.6484375-.1982422-.828125-.1616211-.1435547-.5219727-.2705078-.8999023-.3417969v-.3242188c.3959961.0361328,1.0083008.0898438,1.2963867.0898438.2338867,0,.3417969-.0361328.4501953-.1621094.3237305-.3779297.4677734-2.125.5219727-6.2841797l-2.6469727,1.0449219v3.1865234c0,1.4404297.1083984,3.2412109.144043,4.2314453-.144043.2519531-.6118164.5400391-1.0258789.5400391-.1982422,0-.3964844-.1796875-.3964844-.3603516.1083984-1.5478516.1982422-3.0966797.1982422-4.6806641v-2.5029297l-2.3227539.9179688v7.328125c0,.5400391.1801758.7382812,1.2783203.7382812h2.574707c1.206543,0,2.0708008-.0175781,2.4487305-.0537109.2700195-.0361328.378418-.1083984.4863281-.2705078.144043-.3242188.3959961-1.4042969.6479492-2.7363281h.234375l.0361328,2.8085938c.4677734.1621094.5761719.3056641.5761719.5585938,0,.6474609-.7382812.8095703-4.4658203.8095703h-2.628418c-1.7285156,0-2.2866211-.3417969-2.2866211-1.6201172v-7.1484375l-2.1425781.8466797-.3242188-.4326172,2.4667969-.9716797v-1.9267578c0-1.0800781-.125981-2.4306641-.3242188-3.3310547l2.034668.3056641c-.0361328.234375-.1982422.4326172-.6123047.5048828v4.0146484l2.3227539-.9003906v-1.9619141c0-1.0810547-.1259766-2.4306641-.3242188-3.3310547l1.9985352.3056641c-.0356445.2519531-.1621094.4326172-.5942383.5039062v4.0517578l2.3408203-.9189453.1621094-.0537109.5942383-.7021484Z"/>
      <path d="m145.6001712,74.6595711c-.0361328.2167969-.2705078.2880859-.7026367.3427734,1.5668945,2.3408203,4.4477539,4.3574219,7.4902344,5.7255859l-.0356445.2519531c-.5224609.1083984-.9545898.5224609-1.0625.9726562-2.8085938-1.5664062-5.4555664-4.0517578-6.6982422-6.734375-1.65625,2.6826172-5.0771484,5.7792969-8.300293,7.4003906l-.144043-.2519531c2.8989258-1.8007812,6.4458008-5.5996094,7.3823242-8.2646484l2.0708008.5576172Zm2.9887695,9.4892578s.9179688.7207031,1.512207,1.2607422c-.0537109.1796875-.2158203.2695312-.4677734.2695312h-4.9335938v3.8710938h4.6811523l.8823242-1.1337891s.9902344.7734375,1.6025391,1.3681641c-.0541992.1982422-.2338867.2705078-.4863281.2705078h-12.3154297c-.7744141,0-1.4404297.0351562-2.1064453.1435547l-.5224609-.9365234c.972168.1806641,2.1606445.2880859,2.9169922.2880859l4.1772461.0722656v-3.9433594h-2.2685547c-.7744141,0-1.4404297.0361328-2.1069336.1445312l-.5039062-.9365234c.972168.1796875,2.1606445.2880859,2.9169922.2880859l1.9624023.0722656v-3.4931641h-2.0166016c-.7744141,0-1.4404297.0361328-2.1069336.1435547l-.4677734-.9541016c.972168.1796875,2.1606445.2880859,2.9169922.2880859h5.3652344l.7924805-.9716797s.8999023.6835938,1.4584961,1.2060547c-.0361328.1982422-.234375.2880859-.4501953.2880859h-4.3212891v3.4208984h3.0429688l.8461914-1.0263672Z"/>
      <path d="m167.073804,85.1214852h-2.125v4.2128906h-1.3500977v-4.2128906h-5.4199219v-.828125l5.8339844-8.2832031h.9360352v8.1025391h2.125v1.0087891Zm-3.4750977-1.0087891v-6.3916016l-4.4472656,6.3916016h4.4472656Z"/>
      <path d="m186.4610111,74.7679695s.9541016.7558594,1.5483398,1.3320312c-.0361328.1982422-.2163086.2880859-.4501953.2880859h-12.0996094v12.4423828h10.8393555l.9179688-1.1523438s1.0263672.828125,1.6386719,1.4042969c-.0541992.1982422-.1982422.2880859-.4501953.2880859h-12.9458008c0,.3242188.0361328.7021484.0722656.8457031-.0722656.1982422-.4682617.5224609-1.0444336.5224609-.1801758,0-.378418-.1796875-.378418-.3603516.1083984-1.5478516.1982422-3.0966797.1982422-4.6806641v-7.2382812c0-1.0800781-.1259825-2.4306641-.3242188-3.3310547l1.6748047.7382812h9.9926758l.8105469-1.0986328Zm-10.0649414,12.9462891c1.7822266-1.2783203,3.6005859-3.1689453,5.1313477-5.4560547-1.1704102-1.1162109-2.6108398-2.2324219-4.2851562-3.2587891l.1616211-.2880859c1.9267578.9365234,3.4570312,1.8544922,4.6455078,2.71875.828125-1.3681641,1.5844727-2.8447266,2.1606445-4.4111328l1.7104492.8095703c-.0898438.1982422-.3056641.3427734-.7021484.2880859-.6660156,1.4589844-1.4223633,2.7910156-2.2685547,3.9980469,4.2490234,3.4208984,3.3491211,5.796875,2.1606445,4.8427734-.4682617-1.0800781-1.4042969-2.484375-2.809082-3.9433594-1.65625,2.125-3.6186523,3.7998047-5.7075195,4.9521484l-.1977539-.2519531Z"/>
      <path d="m202.3721439,77.7025399l1.3325195,1.0810547c-.1259766.1435547-.3959961.2880859-.7382812.359375v3.6015625c0,1.4404297.1079102,3.2412109.144043,4.2314453-.144043.2158203-.684082.4853516-1.0263672.4853516-.1621094,0-.2338867-.1796875-.2338867-.359375.0361328-.2519531.0717773-.5039062.0717773-.7929688h-6.121582c0,.3066406.0361328.6669922.0717773.7929688-.0717773.2158203-.5039062.4863281-.9360352.4863281-.1801758,0-.378418-.1806641-.378418-.3603516.1083984-1.5488281.1982422-3.0966797.1982422-4.6816406v-1.4580078c0-1.0810547-.1259766-2.4306641-.3242188-3.3310547l1.4765625.6474609,2.3945312.0722656v-2.484375h-4.8793945c-.7739258,0-1.4404297.0361328-2.1064453.1435547l-.5043945-.9541016c.9726562.1796875,2.1606445.2880859,2.9169922.2880859h10.5332031l.8823242-1.1162109s1.0083008.7744141,1.6386719,1.3505859c-.0541992.1982422-.2163086.2880859-.4501953.2880859h-6.9140625v2.4121094h2.3222656l.6303711-.7021484Zm-9.4707031,10.9833984l11.8657227.0722656v-7.4003906c0-1.0800781-.1264648-2.4306641-.3242188-3.3310547l2.0527344.2880859c-.0541992.2519531-.1801758.4326172-.6123047.4863281v7.0400391c0,1.4404297.1079102,3.2412109.144043,4.2314453-.144043.2519531-.6303711.5224609-1.0263672.5224609-.2338867,0-.3242188-.1806641-.3242188-.3603516.0541992-.3242188.090332-.6484375.090332-1.0087891h-11.8657227c0,.3603516.0361328.7929688.0717773.9550781-.0717773.2333984-.5400391.5214844-.9541016.5214844-.2158203,0-.4140625-.1796875-.4140625-.3603516.1079102-1.5478516.1982422-3.0966797.1982422-4.6806641v-4.2851562c0-1.0810547-.1264648-2.4306641-.3242188-3.3310547l2.034668.2880859c-.0541992.2333984-.1801758.4140625-.6123047.4677734v9.8847656Zm2.8989258-9.7587891v2.9892578l2.5024414.0722656v-3.0615234h-2.5024414Zm0,6.8417969l2.5024414.0722656v-3.4033203h-2.5024414v3.3310547Zm3.6191406-6.8417969v2.9892578l2.5024414.0722656v-3.0615234h-2.5024414Zm2.5024414,6.8417969v-3.3310547h-2.5024414v3.3310547h2.5024414Z"/>
    </g>
  </g>
</svg>