<?xml version="1.0" encoding="UTF-8"?>
<svg id="_レイヤー_2" data-name="レイヤー 2" xmlns="http://www.w3.org/2000/svg" viewBox="0 0 124.1074219 58.4125977">
  <defs>
    <style>
      .cls-1 {
        fill: #b3b3b3;
      }
    </style>
  </defs>
  <g id="_レイヤー_1-2" data-name="レイヤー 1">
    <g>
      <path d="m4.9985352,42.0610352h5.5117188v3.6499023h-5.5117188v7.4824219h6.9350586v3.6499023H.9838867v-25.5493164h10.949707v3.6499023h-6.9350586v7.1171875Z"/>
      <path d="m14.0883789,37.4257812c0-4.0878906,2.1538086-6.4238281,6.0957031-6.4238281s6.0952148,2.3359375,6.0952148,6.4238281v13.2856445c0,1.4233398-.2553711,2.6279297-.7666016,3.5771484.1826172.4741211.4746094.5473633,1.1313477.5473633h.3652344v3.5766602h-.5473633c-1.7885742,0-2.9199219-.6567383-3.4672852-1.7519531-.8032227.2919922-1.7519531.4746094-2.8105469.4746094-3.9418945,0-6.0957031-2.3359375-6.0957031-6.4238281v-13.2856445Zm4.0151367,13.5410156c0,1.8251953.8032227,2.5185547,2.0805664,2.5185547s2.0800781-.6933594,2.0800781-2.5185547v-13.7963867c0-1.8251953-.8027344-2.5185547-2.0800781-2.5185547s-2.0805664.6933594-2.0805664,2.5185547v13.7963867Z"/>
      <path d="m32.7050781,31.2939453v19.7094727c0,1.8251953.8027344,2.4819336,2.0800781,2.4819336,1.277832,0,2.0805664-.6567383,2.0805664-2.4819336v-19.7094727h3.7958984v19.4541016c0,4.0878906-2.0439453,6.4238281-5.9858398,6.4238281s-5.9858398-2.3359375-5.9858398-6.4238281v-19.4541016h4.0151367Z"/>
      <path d="m43.4008789,31.2939453h4.0146484v25.5493164h-4.0146484v-25.5493164Z"/>
      <path d="m62.2348633,37.6083984v3.3212891c0,4.0878906-1.9711914,6.3144531-5.9858398,6.3144531h-1.8979492v9.5991211h-4.0151367v-25.5493164h5.9130859c4.0146484,0,5.9858398,2.2265625,5.9858398,6.3144531Zm-7.8837891-2.6645508v8.6503906h1.8979492c1.2773438,0,1.9707031-.5839844,1.9707031-2.4091797v-3.8320312c0-1.8251953-.6933594-2.4091797-1.9707031-2.4091797h-1.8979492Z"/>
      <path d="m72.6020508,49.434082l2.737793-18.1401367h5.5839844v25.5493164h-3.7958984v-18.3222656l-2.7739258,18.3222656h-3.7958984l-2.9926758-18.0668945v18.0668945h-3.5039062v-25.5493164h5.5844727l2.9560547,18.1401367Z"/>
      <path d="m87.8608398,42.0610352h5.5112305v3.6499023h-5.5112305v7.4824219h6.9345703v3.6499023h-10.9492188v-25.5493164h10.9492188v3.6499023h-6.9345703v7.1171875Z"/>
      <path d="m100.855957,38.3383789v18.5048828h-3.6132812v-25.5493164h5.0371094l4.1240234,15.2929688v-15.2929688h3.5771484v25.5493164h-4.1245117l-5.0004883-18.5048828Z"/>
      <path d="m111.6977539,31.2939453h12.409668v3.6499023h-4.1972656v21.8994141h-4.0151367v-21.8994141h-4.1972656v-3.6499023Z"/>
    </g>
    <g>
      <path class="cls-1" d="m5.3510742,2.3813477v.7841797H0v-.7841797h5.3510742Zm-.4902344,5.7148438v4.1186523H1.4848633v.6582031h-.840332v-4.7768555h4.2163086ZM.6586914,5.0566406v-.7705078h4.2163086v.7705078H.6586914Zm0,1.9052734v-.7705078h4.2163086v.7705078H.6586914ZM4.8325195.5180664v.7705078H.7426758v-.7705078h4.0898438Zm-.8120117,8.3769531H1.4848633v2.5209961h2.5356445v-2.5209961ZM7.4101562,1.3305664v.8686523c0,1.2045898-.3081055,2.7036133-1.8208008,3.6977539-.1401367-.1816406-.4902344-.5039062-.6865234-.6298828,1.3867188-.8964844,1.6108398-2.0874023,1.6108398-3.0820312V.4624023h4.4125977v3.5439453c0,.3081055.0419922.3642578.2939453.3642578h.7841797c.2666016,0,.3085938-.1821289.3364258-1.5830078.1821289.1538086.5600586.2939453.7983398.3500977-.0698242,1.652832-.3081055,2.059082-1.0366211,2.059082h-1.0083008c-.8266602,0-1.0644531-.2519531-1.0644531-1.1767578V1.3305664h-2.6196289Zm4.3144531,4.8046875l.6162109.2524414c-.0141602.0698242-.0698242.1118164-.1118164.1538086-.4765625,1.6669922-1.3310547,3.0117188-2.4233398,4.0483398.9521484.7421875,2.0727539,1.2885742,3.3618164,1.6108398-.2104492.1962891-.4765625.5742188-.6166992.8125-1.3305664-.3925781-2.4790039-.9946289-3.4594727-1.8071289-1.0786133.840332-2.3251953,1.4428711-3.6420898,1.8208008-.0981445-.237793-.3222656-.6298828-.5185547-.8261719,1.246582-.3222656,2.4375-.8544922,3.4741211-1.625-.8828125-.9106445-1.5830078-1.9892578-2.0732422-3.2495117l.840332-.2661133c.4345703,1.1206055,1.0927734,2.1010742,1.9331055,2.9272461.8408203-.7983398,1.5268555-1.7788086,1.9750977-2.9555664h-5.5327148v-.8681641h6.0087891l.168457-.0283203Z"/>
      <path class="cls-1" d="m17.6132812,5.0849609c-.4624023.8261719-.9526367,1.5966797-1.4711914,2.2412109-.0976562-.2241211-.3217773-.7006836-.4619141-.9106445,1.2045898-1.4570312,2.3671875-3.894043,3.081543-6.3173828l1.1064453.3500977c-.0419922.0981445-.1401367.1542969-.3217773.1542969-.3085938.9384766-.6728516,1.8769531-1.0791016,2.7734375l.3222656.0981445c-.027832.0976562-.0976562.1538086-.2661133.1816406v9.3852539h-.9101562v-7.9560547Zm11.4018555-1.1347656v.840332h-8.1801758v2.2133789c0,1.7646484-.1962891,4.2861328-1.3027344,6.0092773-.1401367-.1679688-.5043945-.4765625-.7006836-.5883789,1.0087891-1.597168,1.1210938-3.8100586,1.1210938-5.4350586v-3.0395508h9.0625Zm-9.3569336-2.5776367h2.3671875V.1259766l1.1489258.0839844c-.0141602.0844727-.0839844.1542969-.2666016.1821289v.9804688h2.7739258V.1259766l1.1625977.0839844c-.0141602.0844727-.0839844.1542969-.2661133.1821289v.9804688h2.3251953v.8408203h-2.3251953v1.21875h-.8964844v-1.21875h-2.7739258v1.21875h-.8823242v-1.21875h-2.3671875v-.8408203Zm8.9086914,4.5668945v6.1489258c0,.9248047-.5039062.9384766-2.1572266.9384766-.027832-.2099609-.1396484-.5180664-.2661133-.7280273.3364258,0,.6303711.0136719.8686523.0136719.6303711,0,.7143555,0,.7143555-.2241211v-1.4003906h-2.2133789v2.2548828h-.7983398v-2.2548828h-2.1572266v2.3388672h-.8261719v-7.0874023h6.8354492Zm-3.8520508.7563477h-2.1572266v1.3027344h2.1572266v-1.3027344Zm-2.1572266,3.2915039h2.1572266v-1.2885742h-2.1572266v1.2885742Zm5.1689453-3.2915039h-2.2133789v1.3027344h2.2133789v-1.3027344Zm-2.2133789,3.2915039h2.2133789v-1.2885742h-2.2133789v1.2885742Z"/>
      <path class="cls-1" d="m39.890625,6.5136719c0,.7983398-.6445312,1.4428711-1.4428711,1.4428711s-1.4428711-.6445312-1.4428711-1.4428711.6445312-1.4428711,1.4428711-1.4428711c.8261719,0,1.4428711.6723633,1.4428711,1.4428711Z"/>
      <path class="cls-1" d="m49.9672852,4.9868164c-.5605469.9101562-1.1767578,1.7226562-1.8071289,2.3950195-.1118164-.2241211-.3500977-.6723633-.5039062-.8823242,1.4145508-1.456543,2.8012695-3.9082031,3.6279297-6.387207l1.1484375.3779297c-.0561523.0981445-.1538086.1401367-.3222656.1401367-.3779297,1.0087891-.8261719,2.0029297-1.3305664,2.9555664l.3920898.1123047c-.0141602.0976562-.0981445.1538086-.2661133.1821289v9.1464844h-.9384766V4.9868164Zm11.0800781.4902344h-4.2304688v6.0371094h3.9921875v.9106445h-8.6845703v-.9106445h3.7260742v-6.0371094h-4.0620117v-.9248047h4.0620117V.2241211l1.2324219.0839844c-.0136719.0981445-.0839844.1679688-.2661133.1821289v4.0620117h4.2304688v.9248047Z"/>
      <path class="cls-1" d="m66.9360352,4.0063477v.9384766c.40625.5322266,1.484375,2.1572266,1.7368164,2.5634766-.1118164.1538086-.2241211.3081055-.5463867.7001953-.2241211-.4624023-.7563477-1.4008789-1.1904297-2.1293945v6.9199219h-.8686523v-6.9057617c-.4902344,1.6391602-1.1484375,3.2358398-1.8349609,4.2021484-.1118164-.2519531-.3364258-.6020508-.4902344-.8125.8823242-1.1904297,1.7788086-3.487793,2.2133789-5.4765625h-1.9331055v-.8828125h2.0449219V0l1.1489258.0839844c-.0141602.0839844-.0981445.1542969-.2802734.1821289v2.8574219h1.6669922v.8828125h-1.6669922Zm1.1064453,7.5498047c.9106445-.4482422,2.269043-1.2045898,3.5859375-1.9331055l.2241211.7006836c-1.1484375.7285156-2.3530273,1.456543-3.1376953,1.9047852,0,.1123047-.0419922.1962891-.1259766.2524414l-.5463867-.9248047Zm6.1074219-2.3110352v.0141602c.7421875,1.1342773,1.7368164,2.0166016,2.9277344,2.5073242-.2104492.1821289-.4765625.5180664-.6166992.7563477-1.4008789-.7006836-2.5209961-1.9472656-3.3056641-3.5019531v2.8994141c0,1.0507812-.4204102,1.1347656-2.3393555,1.1347656-.0419922-.2524414-.1542969-.6445312-.2802734-.8964844.6445312.0136719,1.2749023.0136719,1.4707031.0136719.1962891-.0136719.2382812-.0698242.2382812-.2519531v-5.1826172h-3.6416016v-.8125h3.6416016v-1.246582h-2.8432617v-.784668h2.8432617v-1.1904297h-3.2915039v-.8125h1.7646484c-.1401367-.4624023-.4482422-1.0927734-.7421875-1.5830078l.7563477-.2519531c.3500977.5322266.7143555,1.246582.840332,1.6948242l-.3642578.1401367h2.8579102l-.3085938-.1123047c.2944336-.4902344.6865234-1.2744141.8686523-1.7788086l1.0786133.3642578c-.0419922.0698242-.1401367.1259766-.2939453.1259766-.1962891.3920898-.5322266.9667969-.8266602,1.4008789h2.0454102v.8125h-3.4741211v1.1904297h3.0957031v.784668h-3.0957031v1.246582h3.6557617v.8125h-3.6557617v.4482422c.2241211.6860352.5322266,1.3447266.9106445,1.9331055.5878906-.5327148,1.4003906-1.3867188,1.8349609-1.9750977l.8544922.6303711c-.0561523.0698242-.168457.0976562-.2944336.0839844-.4624023.5043945-1.2885742,1.2607422-1.8911133,1.7368164l-.4199219-.3500977Zm-3.6142578.3081055c-.2797852-.5322266-.8964844-1.3447266-1.456543-1.9331055l.6582031-.4204102c.5742188.574707,1.2045898,1.3447266,1.4848633,1.8774414l-.6865234.4760742Z"/>
    </g>
  </g>
</svg>