<?xml version="1.0" encoding="UTF-8"?>
<svg id="_レイヤー_2" data-name="レイヤー 2" xmlns="http://www.w3.org/2000/svg" viewBox="0 0 509.8959961 61.2958984">
  <g id="_レイヤー_1-2" data-name="レイヤー 1">
    <g>
      <path d="m18.081543,11.4897461c.2519531-.3203125.4350586-.640625.6181641-.640625.2749023,0,1.8081055,1.2128906,1.8081055,1.5561523-.0683594.2519531-.2514648.3432617-.5722656.3432617h-6.0649414c1.6933594,1.3505859,4.5087891,2.4033203,6.8432617,2.8842773l-.0229492.2514648c-.5493164.1147461-.9155273.5493164-1.0986328,1.2358398-1.2358398-.4575195-2.4946289-1.0527344-3.6162109-1.8081055v1.7856445c.0458984,1.762207.0688477,2.3574219.137207,3.4101562-.1601562.2744141-.8925781.6181641-1.3276367.6181641h-.2285156v-1.1445312H6.2714844v.7094727c0,.137207-.4575195.5263672-1.1445312.5263672-.2290039,0-.4116211-.2290039-.4116211-.4575195.0913086-1.1904297.137207-1.7856445.1826172-3.5708008v-2.0371094c-1.3041992.9614258-2.769043,1.8081055-4.4399414,2.4033203l-.2060547-.3432617c2.2885742-1.1445312,4.2573242-2.746582,5.6992188-4.4633789h-1.8310547c-1.1904297.0229492-2.2890625.1376953-3.4331055.3208008l-.5952148-1.1445312c1.0068359.1142578,2.0141602.1601562,3.0439453.1831055h3.3417969c.4121094-.5493164.7783203-1.0986328,1.0986328-1.6479492h-2.0371094v.4121094c0,.137207-.6181641.4575195-1.2128906.4575195-.2290039,0-.3432617-.2290039-.3432617-.4575195.0683594-.6181641.0683594-.9384766.1142578-1.8999023v-1.1899414c0-1.2133789-.0688477-2.6782227-.2290039-3.6621094l1.8081055.8466797h9.2470703l.3203125-.4350586c.1831055-.2060547.3203125-.4345703.503418-.4345703.2749023,0,1.6020508.9838867,1.6020508,1.3271484-.1142578.1606445-.4575195.3208008-.8007812.3891602v1.6708984c.0458984,1.6479492.0683594,2.1972656.137207,3.1816406-.137207.2514648-.8696289.6176758-1.3500977.6176758h-.2290039v-.8237305h-5.0126953c-.0913086.2290039-.3662109.3432617-.9384766.3432617-.2973633.4350586-.640625.8696289-1.0068359,1.3046875h9.4985352l.4345703-.6181641Zm-.137207-9.7504883c.2519531-.3203125.4580078-.6635742.6411133-.6635742.2744141,0,1.762207,1.2817383,1.762207,1.625-.0229492.2519531-.2514648.3662109-.5722656.3662109h-5.6992188v1.1445312c0,.1142578-.4804688.3662109-1.1899414.3891602-.2290039,0-.3203125-.2290039-.3203125-.4580078.0454102-.1831055.0454102-.2744141.0913086-.5493164v-.5263672h-4.6235352v.4121094c.0458984.4121094.0229492.5493164.0688477.7094727-.0688477.2749023-.6865234.4804688-1.2587891.4804688-.2060547,0-.2973633-.2285156-.2973633-.4575195.0454102-.1831055.0454102-.2973633.0913086-.5952148v-.5493164h-2.4033203c-1.1899414.0229492-2.2885742.137207-3.4331055.3208008l-.5493164-1.1674805c1.0068359.1142578,2.0141602.1601562,3.0439453.1831055h3.3417969c0-.7553711-.0458984-1.6479492-.137207-2.2890625,2.3115234.6870117,2.3115234.9155273,1.9223633,1.1674805l-.3891602.2519531v.8696289h4.6235352c0-.7553711-.0458984-1.6479492-.137207-2.2890625,2.3574219.6870117,2.3574219.9155273,1.9453125,1.1674805l-.3891602.2519531v.8696289h3.3876953l.4804688-.6640625Zm-2.8378906,3.8911133H5.5390625v1.7397461h9.5673828v-1.7397461Zm-9.5673828,2.4262695v1.7167969h9.5673828v-1.7167969H5.5390625Zm1.0073242,6.3857422h7.8959961l.1376953-.1601562c-.5493164-.4804688-1.0302734-.984375-1.4194336-1.5336914h-5.5844727c-.4580078.5039062-.9614258,1.0073242-1.5107422,1.4648438l.480957.2290039Zm8.0107422,2.4262695v-1.762207H6.2714844v1.762207h8.2856445Zm-8.2856445,2.4487305h8.2856445v-1.762207H6.2714844v1.762207Z"/>
      <path d="m39.4829102,15.4951172c-.2290039,2.1972656-2.4492188,3.9140625-9.0634766,4.7382812-.2060547.0224609-.3662109.0224609-.3662109-.1606445-.0229492-.1831055.2744141-.2055664.503418-.2285156.2744141-.0458984,6.4316406-.7783203,7.3242188-4.4633789.137207-.640625.3891602-3.0898438-1.487793-3.6162109-1.8999023-.5039062-3.1357422.9609375-4.6464844,3.2041016-.2973633.4580078-.9609375.8242188-1.2587891.8242188-.2744141-.0229492-1.9682617-.1601562-2.0825195-1.8310547-.0917969-1.3276367.137207-4.1430664.3662109-6.4086914.0683594-.8242188-.2749023-1.2358398-.0917969-1.8081055.137207-.4580078.5952148-.8242188.8242188-1.0073242.7553711-.6635742,2.6777344-1.3500977,2.8608398-1.487793.2060547-.1601562.3891602-.3203125.1142578-.640625-.3662109-.4580078-.640625-.6640625-1.0527344-.8701172-.1601562-.0913086-.3432617-.1826172-.3203125-.2514648.0229492-.1147461.5722656-.137207.7094727-.1147461.3891602,0,2.1972656-.0913086,2.8608398,1.8999023.2978516.8696289-.4116211,1.3505859-.5493164,1.3735352-.137207.0224609-.3432617-.0229492-.5717773-.1601562-.2060547-.1606445-1.0761719-1.0986328-3.4335938.4116211-.3432617.2060547-.4804688.503418-.5493164.9155273-.0913086.5039062.4580078.6865234.3891602,1.6708984-.0458984.4350586-.4804688,3.3417969-.4804688,4.5776367,0,.5493164.0913086.9155273.2514648,1.2587891.1606445.3208008.2519531.4121094.4350586.4121094.1831055.0229492.4804688-.0688477.8466797-.3662109s3.6396484-2.8383789,5.6992188-2.1972656c2.0600586.6181641,2.9985352,2.3344727,2.7695312,4.3256836Z"/>
      <path d="m63.6538086,14.9228516c-2.3803711,2.6782227-5.9282227,4.8984375-9.2929688,4.2119141-2.1972656-.4580078-3.4790039-1.8310547-3.5473633-5.081543-.137207-5.0351562.5952148-7.4384766.4345703-9.6816406-.137207-1.5561523-.5263672-1.762207-.9379883-1.9912109-.1835938-.1142578-.2749023-.4121094.1601562-.4804688.4345703-.0688477.8925781.0229492,1.3046875.2285156.8925781.4121094,1.1210938,1.8310547,1.0297852,2.6323242-.0458984.4121094-.137207,1.0527344-.1831055,1.6479492-.3432617,3.2045898-.6411133,5.4243164-.4804688,7.9423828.1601562,2.6547852,1.2358398,3.1811523,2.9750977,3.5014648,1.1445312.2290039,3.6391602.3662109,8.2856445-3.2270508.1831055-.137207.4350586-.3203125.5263672-.2290039.0917969.1147461-.0913086.3208008-.2744141.5263672Z"/>
      <path d="m86.5654297,9.2695312c-.6865234.9384766-1.8769531,1.5566406-2.9296875,1.9912109-.8696289.3891602-2.472168.9614258-3.9824219,1.6254883-.137207,1.2587891-.0458984,2.9526367-.0688477,3.3188477-.0458984.4804688-.4804688.8466797-.8466797.8237305s-.6640625-.3662109-.6865234-.8237305c0-.2519531.137207-1.4648438.2285156-2.6323242-.4345703.2060547-.8466797.4575195-1.1899414.6865234-1.1445312.8012695-1.7397461,2.0371094-1.625,2.8837891.1142578.9155273,1.3041992,1.3046875,2.0595703,1.3964844,1.8081055.1601562,2.4492188.0454102,3.8681641-.2978516,1.2358398-.2973633,1.7397461-.1831055,1.9228516.3208008.2514648.7094727-1.2358398,1.1669922-1.9458008,1.2587891-.8696289.137207-2.1054688.2060547-3.5932617.0458984-2.609375-.2978516-3.0668945-1.5107422-3.1586914-2.5410156-.0683594-.6865234.1831055-2.1743164,1.9228516-3.4560547.4575195-.3203125,1.0756836-.6635742,1.7851562-1.0068359.0229492-.5263672.0229492-.984375-.0229492-1.3046875-.1601562-1.2358398-.5263672-1.7167969-1.3276367-1.7851562-.9838867-.0917969-2.2885742,1.4189453-3.0209961,2.4257812-.1831055.2519531-.3432617.480957-.5263672.7099609-.2290039.2973633-.7324219,1.0527344-.984375,1.2358398-.2514648.1831055-.7783203-.0917969-.9384766-.4350586-.1601562-.3662109-.0683594-1.0297852.1831055-1.3276367.3432617-.3891602,1.7626953-1.4418945,2.609375-2.8837891.640625-1.0986328,1.3959961-2.6777344,1.8769531-4.2573242-.7783203.2060547-1.625.3208008-2.4033203.2060547-.7783203-.1142578-1.5107422-.6865234-1.8999023-1.0068359-.0683594-.0688477-.1142578-.1601562-.0683594-.2060547.0683594-.1142578.2973633-.0229492.4116211.0229492.1376953.0454102.9384766.3203125,1.8769531.2744141.5263672-.0454102,1.4648438-.1601562,2.4262695-.503418.0458984-.2744141.0913086-.5263672.137207-.8012695.0688477-.5717773,0-1.2817383-.6865234-1.8310547-.1142578-.0913086-.137207-.0913086-.0917969-.2973633.0458984-.2060547.2290039-.2060547.34375-.2060547.137207,0,1.28125.1601562,1.4873047.4350586.1147461.2060547.1376953.5493164.0917969.9384766.2519531.2514648.8007812.3432617,1.3276367.2744141.2055664-.0913086.9838867-.2290039,1.0756836.1601562.137207.4580078-.5039062,1.0532227-1.2133789,1.4418945-.3203125.1601562-1.0297852.5263672-1.8994141.8242188-.4121094,1.3276367-.9384766,2.8837891-1.6020508,4.371582.7324219-.3891602,1.5332031-.3891602,2.1972656-.2060547,1.3041992.3432617,1.6704102,2.2202148,1.6704102,2.2202148.3432617-.8012695.7553711-1.7851562,2.0600586-3.1357422.9155273-.9614258,2.5634766-1.9912109,3.9370117-1.8081055,1.487793.2060547,2.0595703,1.7167969,1.2128906,2.8608398Zm-9.0864258-5.6762695c.2514648-.1142578.4804688-.2744141.7094727-.4345703-.0229492-.0917969-.0688477-.1831055-.2290039-.2749023-.0917969-.0683594-.1831055-.0913086-.2744141-.1142578-.0458984.2519531-.1147461.5263672-.2060547.8237305Zm7.9648438,3.6621094c-.7553711-.5947266-2.4262695.1376953-3.6162109,1.3276367-.9614258.9614258-1.4648438,1.7397461-2.0141602,3.5019531,0,.0229492-.0229492.0458984-.0229492.0458984,1.0756836-.5039062,2.2431641-1.0527344,3.2958984-1.6938477,1.9453125-1.1445312,2.9296875-2.7006836,2.3574219-3.1816406Z"/>
      <path d="m109.1337891,3.25c.2749023-.3432617.503418-.7094727.6870117-.7094727.2744141,0,1.9453125,1.3959961,1.9453125,1.7397461-.0688477.2514648-.2519531.3662109-.5722656.3662109h-8.5146484v3.9824219h3.7998047l.4575195-.4804688c.2519531-.2519531.4580078-.5039062.6411133-.5039062.2744141,0,1.5332031,1.2817383,1.5332031,1.625-.2060547.2060547-.4345703.2519531-.9838867.2749023-1.2133789,2.4033203-2.8383789,4.5317383-4.9208984,6.3398438,2.5405273,1.7856445,5.6303711,3.0444336,8.9262695,3.7539062l-.0229492.2514648c-.6635742.0688477-1.2128906.5039062-1.4418945,1.2363281-3.2729492-.9384766-6.1572266-2.4033203-8.46875-4.4174805-2.6777344,2.0141602-6.0195312,3.5249023-10.1396484,4.4858398l-.1826172-.3891602c3.7304688-1.144043,6.8891602-2.7919922,9.4296875-4.9208984-1.8081055-1.7851562-3.2041016-3.9824219-4.097168-6.6147461h-1.144043c-.6870117.0229492-1.3505859.1376953-2.0141602.3208008l-.6181641-1.1445312c1.0073242.1142578,2.0141602.1601562,3.0439453.1831055h4.715332v-3.9824219h-5.1044922c-1.1899414.0224609-2.2885742.137207-3.4331055.3203125l-.5952148-1.1904297c1.0073242.1147461,2.0146484.1601562,3.0444336.1831055h6.0883789c0-1.2587891-.0688477-2.8149414-.2290039-3.8452148,2.4716797.7099609,2.4716797.9384766,2.0825195,1.2133789l-.3662109.2514648v2.3803711h5.9511719l.503418-.7094727Zm-11.4438477,6.0195312c.9838867,2.3120117,2.5405273,4.2573242,4.5087891,5.8369141,1.8081055-1.6938477,3.25-3.6621094,4.234375-5.8369141h-8.7431641Z"/>
      <path d="m117.5576172,19.203125c-.2519531-.2973633-.4121094-.6635742-.2519531-1.3046875.0458984-.2060547.7094727-.7553711,1.0073242-1.1445312.6635742-.8925781,2.7006836-2.5859375,3.3642578-3.3642578.6865234-.7783203,3.6162109-3.6850586,3.9370117-3.9599609.3203125-.2973633.7324219-.6865234.6176758-.8925781-.0683594-.137207-.1831055-.2285156-.4804688-.2514648-1.9682617.0229492-3.25,1.2128906-3.5019531,1.4189453-.2744141.2290039-.5263672.5263672-.9614258.6411133-.4345703.1142578-1.2817383-.4350586-1.9682617-1.0761719-.5493164-.5263672-.5952148-.8696289-.5722656-1.0297852.0229492-.1831055.0458984-.2749023.2290039-.4121094.0913086-.1142578.2749023.0229492.3891602.1147461.0913086.0913086.6181641.5722656,1.0527344.7094727.4350586.1601562,1.1445312.0229492,1.3964844-.0688477.2285156-.0913086.777832-.3662109,2.128418-.7783203,1.3276367-.4116211,2.4946289-.5493164,2.8837891-.503418.4121094.0229492.8925781.2749023,1.2133789.6411133.3203125.3662109.4575195.777832.3662109,1.1210938-.0917969.3662109-.984375.7553711-1.6254883,1.1674805-1.7163086,1.0527344-4.6459961,3.8452148-4.7836914,3.9370117-.0913086.0913086-.2973633.2973633-.2744141.3432617.0229492.0683594.2060547-.0458984.4121094-.137207,1.3271484-.5268555,2.5175781-.6870117,3.2958984-.1147461.6865234.480957.8007812.9614258.9838867,2.3803711.1606445,1.3276367.3208008,1.5566406.7553711,1.6479492,1.3735352.2749023,3.1816406-.2514648,4.5546875-.4121094,1.0532227-.137207,1.6025391,1.3046875.4350586,1.6479492-.9384766.2978516-2.6323242.34375-3.5932617.34375-1.5336914-.0229492-2.1972656-.3208008-2.6782227-.9384766-.4345703-.5493164-.6865234-1.96875-.7094727-2.4262695-.0458984-.4580078-.0683594-1.0756836-.3432617-1.3735352-.6411133-.6635742-2.0141602-.4116211-3.1357422.1376953-1.1445312.5493164-2.7695312,3.4101562-2.9755859,3.890625-.2055664.5039062-.3203125.6411133-.4575195.6870117-.137207.0454102-.4580078-.3208008-.7094727-.6411133Zm3.5932617-13.5957031c-.0229492-.0683594.1142578-.1601562.1831055-.2060547.4580078-.3662109,1.9458008-1.3730469,2.1972656-1.4873047.1147461-.0688477.2973633-.1376953.2519531-.2290039-.0458984-.0688477-.984375-.503418-1.3964844-1.0756836-.4116211-.5722656-.6176758-.984375-.6865234-1.3964844-.0229492-.2285156.0458984-.3203125.1147461-.3203125.0683594,0,.2055664.2060547.3662109.3432617.1826172.1601562.8466797.7783203,1.6933594,1.121582.5263672.2060547.984375.2978516,1.3276367.2978516.2060547,0,.6865234-.1835938.9614258-.1147461.8007812.137207,1.7851562,1.2358398.7094727,1.5566406-.3203125.1142578-.8012695.0683594-1.5107422.2514648-.4804688.1147461-.9384766.1376953-2.1743164.6181641-.5493164.2060547-1.487793.5722656-1.762207.7094727-.1606445.0913086-.2749023,0-.2749023-.0688477Z"/>
      <path d="m147.6333008,15.9301758c.6865234.2060547,1.6020508,1.121582,1.8081055,2.0830078v.0683594l.0917969-.0229492c3.2729492-1.1669922,3.8676758-6.3857422-.0917969-7.2094727-.4575195-.1147461-.8466797-.137207-1.1899414-.137207-1.4194336-.0229492-3.1816406.5488281-5.21875,3.9824219-.2519531.4121094-.5722656,1.0068359-.8466797,1.2358398-.1376953.1142578-.3203125.1142578-.4121094.1142578-.2744141,0-.5263672-.137207-.5952148-.2514648-.3662109-.5263672-.1142578-1.0756836.2290039-1.6479492.0917969-.1601562,1.1674805-1.4418945,1.6020508-1.9912109.137207-.1831055.2290039-.2978516.2749023-.3208008,1.5107422-1.8994141,3.6162109-5.1723633,4.737793-6.9804688l.0458984-.0917969c.2514648-.3891602.640625-1.0068359.2055664-1.3730469-.0224609,0-.0454102-.0229492-.0454102-.0229492-.0688477-.0688477-.1601562-.1147461-.2519531-.1376953-.2744141-.0683594-.503418.2290039-.640625.4350586-.1831055.2744141-1.2133789,1.6938477-2.3349609,2.1743164-.2055664.0917969-.4116211.1147461-.6176758.1147461-.4121094,0-1.1674805-.2060547-1.4648438-1.487793-.0917969-.4350586-.0458984-.5722656-.0458984-.5952148.1831055-.0917969.3203125.1142578.4121094.2519531.0683594.1142578.3432617.2744141.640625.2744141.0917969,0,.2060547-.0229492.2978516-.0458984.4345703-.137207,1.2817383-.5947266,2.3574219-1.4648438.5722656-.4575195,1.2587891-.6176758,2.0595703-.4804688.5039062.0913086,1.4423828.4121094,1.6708984,1.0297852.1831055.480957.0688477.8925781-.3662109,1.3505859-.2744141.2973633-4.6230469,5.5161133-5.0351562,6.2714844l-.1142578.2285156.2285156-.1601562c.3891602-.2290039,1.7167969-1.144043,3.6162109-1.0986328.4121094,0,.847168.0458984,1.2592773.1601562.503418.0917969.9838867.2519531,1.4189453.4580078,3.1357422,1.5336914,2.9985352,6.0654297.1142578,7.8046875-1.6479492,1.0073242-4.0053711,1.5566406-5.7675781.5493164-1.8081055-1.0297852-.8925781-3.25,1.0527344-3.2041016.2749023,0,.5952148.0458984.9155273.137207Zm.503418,2.5175781c.0229492-.0229492.0458984-.0454102.0229492-.0913086-.2290039-.8701172-.5952148-1.4189453-1.3730469-1.5566406-.1147461-.0229492-.2060547-.0229492-.3208008-.0229492-.6635742.0229492-.8007812.5493164-.8007812.847168,0,.0913086.0454102.1831055.1142578.2744141.3432617.3662109,1.3046875.6411133,1.9228516.6411133.3662109.0229492.4116211-.0458984.4345703-.0917969Z"/>
      <path d="m163.449707,5.1499023c-.8696289.0229492-1.7167969.137207-2.5634766.3203125l-.5952148-1.1445312c1.0073242.1147461,2.0141602.1606445,3.0444336.1831055h3.6621094l.4121094-.6176758c.2285156-.2978516.4116211-.6181641.5947266-.6181641.2749023,0,1.6938477,1.1904297,1.6938477,1.5336914-.0688477.2514648-.2749023.3432617-.5722656.3432617h-5.6762695Zm2.8837891,1.6938477c.2060547-.2749023.3662109-.5722656.5493164-.5722656.2749023,0,1.5566406,1.0986328,1.5566406,1.4418945-.0688477.2514648-.2973633.3662109-.5722656.3662109h-2.5864258c-1.1899414.0229492-2.2885742.137207-3.4331055.3203125l-.5722656-1.1899414c1.0073242.1142578,2.0141602.1601562,3.0439453.1831055h1.6479492l.3662109-.5493164Zm-.0454102,2.9067383c.2055664-.2978516.3662109-.5952148.5493164-.5952148.2744141,0,1.5561523,1.1445312,1.5561523,1.487793-.0458984.2290039-.2514648.3432617-.5263672.3432617h-2.5864258c-1.1899414.0229492-2.2885742.137207-3.4331055.3203125l-.5722656-1.1669922c1.0073242.1142578,2.0141602.1601562,3.0439453.1831055h1.5795898l.3891602-.5722656Zm.3891602,2.9296875c.1826172-.2519531.3203125-.503418.503418-.503418.2744141,0,1.6479492,1.1669922,1.6479492,1.5102539-.1376953.1831055-.5039062.3662109-.9155273.4580078v1.8540039c.0454102,1.8310547.0683594,2.4487305.137207,3.5473633-.137207.2519531-.8466797.5952148-1.3046875.5952148-.2060547,0-.2973633-.2290039-.2973633-.4580078.0454102-.1142578.0454102-.1826172.0913086-.3662109v-.4345703h-3.6621094v.5263672c.0458984.5263672.0458984.6865234.0917969.9155273-.0917969.2749023-.6640625.5952148-1.2363281.5952148-.1826172,0-.3203125-.2290039-.3203125-.4580078.0688477-.7783203.0917969-1.1669922.1376953-2.3344727v-1.4189453c0-1.3964844-.0917969-3.1586914-.2749023-4.3032227l1.7167969.7783203h3.3413086l.34375-.503418Zm-.3208008-11.6044922c.2290039-.2973633.3891602-.6176758.5722656-.6176758.2749023,0,1.6708984,1.1899414,1.6708984,1.5332031-.0458984.2519531-.2749023.3662109-.5722656.3662109h-2.6547852c-1.1904297.0229492-2.2890625.137207-3.4335938.3203125l-.5722656-1.1899414c1.0073242.1142578,2.0146484.1601562,3.0444336.1831055h1.5336914l.4116211-.5952148Zm-3.4790039,17.1660156h3.6621094v-4.371582h-3.6621094v4.371582Zm18.1962891,1.4194336l-.0458984.2514648c-.640625.0917969-1.1445312.5493164-1.3730469,1.2817383-2.2431641-.8237305-4.0742188-1.9682617-5.5161133-3.5019531-1.7397461,1.487793-3.9599609,2.6782227-6.7519531,3.5019531l-.1831055-.3432617c2.5405273-.9838867,4.6005859-2.3344727,6.2026367-4.0053711-1.1904297-1.5336914-2.0600586-3.4331055-2.6323242-5.7451172h-.5722656c-.3203125.0229492-.5493164.1376953-.8237305.3208008l-.6181641-1.1445312c1.0073242.1142578,2.0141602.1601562,3.0444336.1831055h5.012207l.4121094-.4580078c.2290039-.2285156.4121094-.4804688.5952148-.4804688.2744141,0,1.5332031,1.1445312,1.5332031,1.487793-.1831055.2060547-.4121094.2744141-.8925781.3203125-.8007812,2.0600586-1.8769531,3.8911133-3.387207,5.4472656,1.6479492,1.3505859,3.6621094,2.2890625,5.996582,2.8842773Zm-5.355957-18.7915039c.1831055-.2514648.3203125-.503418.503418-.503418.2749023,0,1.4423828,1.1904297,1.4423828,1.5336914-.1376953.1601562-.34375.2973633-.7324219.3432617v4.737793c0,.2290039.0454102.2973633.4575195.2973633h.9614258c.3891602,0,.7324219,0,.8466797-.0229492.1831055-.0229492.2290039-.0454102.3203125-.2285156.1376953-.3432617.34375-1.5795898.5722656-2.746582h.2749023l.0683594,2.7919922c.3891602.1831055.4580078.3662109.4580078.6181641,0,.6181641-.5722656.9155273-2.609375.9155273h-1.2817383c-1.2128906,0-1.4418945-.3662109-1.4418945-1.3276367V2.0371094h-3.3417969v1.2817383c0,1.9223633-.2973633,4.7148438-3.4560547,6.4770508l-.2290039-.2973633c2.0600586-1.8769531,2.3349609-4.1425781,2.3349609-6.1796875v-1.3505859c0-.4804688-.0229492-1.0297852-.0688477-1.4648438l1.7167969.8696289h2.8608398l.3432617-.503418Zm-4.4633789,10.230957c.6181641,1.96875,1.6254883,3.5708008,2.9296875,4.8754883,1.1674805-1.4418945,2.0600586-3.0898438,2.6552734-4.8754883h-5.5849609Z"/>
      <path d="m183.6376953,12.0161133l-.2973633-.2055664c1.0297852-1.7856445,2.0600586-4.2119141,2.8837891-6.8208008.480957-1.4418945.9384766-3.6621094.984375-4.9438477,2.5634766.7783203,2.5634766,1.0068359,2.128418,1.1899414l-.4116211.1601562c-.5039062,1.6938477-1.1445312,3.3647461-1.8310547,4.8984375.8925781.7094727.8925781.9379883.5488281,1.0756836l-.3432617.137207v7.6904297c.0458984,2.746582.0917969,3.6621094.1831055,5.3789062-.2060547.2285156-.7548828.5947266-1.2817383.5947266-.2514648,0-.503418-.2285156-.503418-.4575195.137207-1.9682617.2060547-2.9755859.2519531-5.9511719v-6.1567383c-.7324219,1.2817383-1.5107422,2.4492188-2.3120117,3.4101562Zm7.1640625-1.4648438c0,3.090332-.0913086,7.5532227-2.5405273,10.6201172l-.3432617-.2514648c1.5107422-3.1586914,1.5791016-6.980957,1.5791016-10.3686523v-2.4716797c0-.847168-.0454102-1.8540039-.1601562-2.5634766l1.7167969.8696289h9.7275391l.4345703-.6635742c.2519531-.3208008.4350586-.6640625.6181641-.6640625.2749023,0,1.8310547,1.2817383,1.8310547,1.6254883-.0458984.2514648-.2749023.3662109-.5722656.3662109h-12.2910156v3.5014648Zm10.597168-8.1708984c.2290039-.2973633.3891602-.6181641.5722656-.6181641.2749023,0,1.6708984,1.1674805,1.6708984,1.5107422-.0458984.2519531-.2519531.3662109-.5493164.3662109h-3.9365234v.5263672c.0454102.5263672.0454102.7094727.0913086.9384766-.0913086.2060547-.4804688.503418-1.2128906.503418-.2290039,0-.3203125-.2285156-.3203125-.4575195.0454102-.2749023.0454102-.4121094.0913086-.847168v-.6635742h-3.3188477v.5722656c.0458984.5493164.0458984.7324219.0917969.984375-.0917969.2514648-.5493164.4804688-1.1904297.4804688-.2290039,0-.3203125-.2290039-.3203125-.4575195.0458984-.2978516.0458984-.4350586.0913086-.8930664v-.6865234h-1.2587891c-.777832.0229492-1.5102539.137207-2.2426758.3203125l-.5498047-1.144043c.9160156.1142578,1.8310547.1601562,2.7470703.1831055h1.3041992c0-.9384766-.0454102-2.1289062-.1831055-2.9296875,2.2661133.6865234,2.2661133.9155273,1.8769531,1.1669922l-.3662109.2519531v1.5107422h3.3188477c0-.9384766-.0458984-2.1289062-.1831055-2.9296875,2.2661133.6865234,2.2661133.9155273,1.8999023,1.1669922l-.3662109.2519531v1.5107422h1.8310547l.4116211-.6181641Zm-8.0566406,15.3579102c.0458984,1.4648438.0458984,1.9682617.1147461,2.8154297-.1147461.2514648-.6411133.5947266-1.1904297.5947266-.2060547,0-.4116211-.2285156-.4116211-.4575195.1142578-1.6938477.1601562-2.5405273.2055664-5.0810547v-2.7695312c0-1.5566406-.0913086-3.4331055-.2973633-4.6918945l1.6938477.8007812h7.2324219l.2978516-.4345703c.1601562-.2290039.2744141-.4580078.4575195-.4580078.2749023,0,1.7397461,1.0527344,1.7397461,1.3959961-.1376953.1831055-.5039062.3662109-.9384766.480957v9.2011719c0,1.144043-.2060547,1.8310547-1.8999023,2.0366211-.0458984-.4345703-.1142578-.8466797-.3662109-1.0527344-.1831055-.2290039-.5952148-.4121094-1.2817383-.503418v-.3891602s1.4189453.137207,1.7851562.137207c.3208008,0,.4121094-.137207.4121094-.4345703v-2.6782227h-3.1586914v1.3964844c.0458984,1.3959961.0458984,1.8764648.1147461,2.6777344-.1147461.2290039-.5263672.5722656-1.2133789.5722656-.1831055,0-.3203125-.2290039-.3203125-.4580078.0688477-.8696289.0917969-1.3041992.137207-2.6318359v-1.5566406h-3.112793v1.487793Zm3.112793-8.1025391h-3.112793v2.609375h3.112793v-2.609375Zm-3.112793,5.9511719h3.112793v-2.7006836h-3.112793v2.7006836Zm7.5532227-3.3417969v-2.609375h-3.1586914v2.609375h3.1586914Zm-3.1586914,3.3417969h3.1586914v-2.7006836h-3.1586914v2.7006836Z"/>
      <path d="m216.3916016,12.8173828c-1.1674805,0-2.105957-.9384766-2.105957-2.1054688,0-1.1674805.9384766-2.105957,2.105957-2.105957s2.105957.9384766,2.105957,2.105957c0,1.1669922-.9384766,2.1054688-2.105957,2.1054688Z"/>
      <path d="m229.3930664,12.1079102l-.2978516-.2060547c1.2587891-1.8081055,2.5864258-4.2802734,3.6850586-7.0039062.5722656-1.3959961,1.2128906-3.5932617,1.3735352-4.875,2.5405273.8925781,2.5405273,1.121582,2.1054688,1.2817383l-.4121094.137207c-.640625,1.7397461-1.3959961,3.4106445-2.265625,4.9667969l.777832.2973633c-.0683594.2060547-.2973633.34375-.6865234.3891602v8.0336914c.0458984,2.746582.0917969,3.6621094.1831055,5.3789062-.2060547.2519531-.8007812.6181641-1.3730469.6181641-.2519531,0-.5039062-.2290039-.5039062-.4580078.1376953-1.9682617.2060547-2.9755859.2519531-5.9506836v-6.0654297c-.9155273,1.3046875-1.8540039,2.4946289-2.8378906,3.4560547Zm17.4863281-4.7836914c.2744141-.3432617.4804688-.7094727.6635742-.7094727.2749023,0,1.8769531,1.3500977,1.8769531,1.6938477-.0688477.2514648-.2744141.3662109-.5493164.3662109h-6.6376953v10.6425781h3.6166992l.4804688-.6865234c.2749023-.3432617.4804688-.6865234.6635742-.6865234.2749023,0,1.8999023,1.3505859,1.8999023,1.6938477-.0458984.2514648-.2749023.3662109-.5722656.3662109h-9.3154297c-1.1899414.0229492-2.2885742.137207-3.4331055.3203125l-.5952148-1.1899414c1.0073242.1142578,2.0141602.1601562,3.0439453.1826172h2.6782227v-10.6425781h-2.3120117c-1.1899414.0224609-2.2885742.137207-3.4331055.3203125l-.5722656-1.1674805c1.0073242.1147461,2.0141602.1601562,3.0444336.1831055h3.2729492v-3.0209961c0-1.5566406-.0917969-3.4331055-.2978516-4.6923828,2.6323242.7324219,2.6323242.9614258,2.2202148,1.2363281l-.3891602.2514648v6.2255859h4.1660156l.4804688-.6865234Z"/>
      <path d="m257.8666992,4.9438477c.2285156-.3203125.4116211-.6635742.5947266-.6635742.2749023,0,1.6708984,1.2587891,1.6708984,1.6020508-.0458984.2514648-.2973633.3662109-.5722656.3662109h-2.7695312v2.7006836c3.9599609,2.1743164,2.7011719,4.8979492,1.4423828,3.7763672-.1835938-.9609375-.8242188-2.2426758-1.4423828-3.2041016v5.5849609c.0458984,2.7460938.0917969,3.6621094.1831055,5.378418-.1831055.3203125-.777832.6411133-1.2817383.6411133-.2973633,0-.5493164-.2290039-.5493164-.4580078.1376953-1.9682617.2060547-2.9755859.2519531-5.9506836v-4.1660156c-.7783203,1.96875-1.8081055,3.7768555-3.2045898,5.3789062l-.2973633-.3203125c1.6708984-2.6323242,2.6782227-5.9741211,3.25-9.3613281h-1.0068359c-.5952148.0229492-1.1445312.137207-1.6938477.3203125l-.5722656-1.1674805c.7783203.1147461,1.5566406.1606445,2.3803711.1835938h1.1445312v-.7783203c0-1.5566406-.0913086-3.4335938-.2973633-4.6923828,2.4716797.7324219,2.4716797.9614258,2.0825195,1.2363281l-.3891602.2514648v3.9829102h.6411133l.4350586-.6411133Zm12.0849609,4.4404297c.2514648-.3208008.4345703-.6640625.6176758-.6640625.2749023,0,1.762207,1.2592773,1.762207,1.6025391-.0224609.2514648-.2514648.3662109-.5488281.3662109h-5.6992188v.8007812c.2973633,1.2817383.7548828,2.3344727,1.3046875,3.2045898.9609375-1.0073242,1.9453125-2.472168,2.4257812-3.5478516,1.96875,1.3735352,1.96875,1.6020508,1.5336914,1.6020508h-.4121094c-.7783203.6870117-2.0600586,1.6479492-3.25,2.3349609,1.3276367,1.8310547,3.1357422,2.8149414,4.9667969,3.4790039l-.0229492.2514648c-.5263672.137207-.9384766.6411133-1.121582,1.3505859-2.5864258-1.4648438-4.4174805-3.3647461-5.4243164-7.3242188v6.1796875c0,1.1445312-.2290039,1.9458008-2.0600586,2.1513672-.0458984-.4345703-.1601562-.8237305-.4121094-1.0297852-.2744141-.2290039-.7324219-.4121094-1.625-.5263672v-.3432617s1.8769531.137207,2.2661133.137207c.3662109,0,.4575195-.1142578.4575195-.4350586v-3.4331055c-1.121582.8925781-2.6777344,2.1513672-4.7148438,3.6391602-.0229492.2749023-.1601562.503418-.3203125.6181641l-1.2133789-1.5566406c1.0756836-.4575195,3.6391602-1.762207,6.2026367-3.0898438l.0458984.0917969v-4.5546875h-1.762207c-1.0986328.0229492-2.1743164.137207-3.25.3203125l-.5722656-1.1674805c1.0068359.1147461,2.0141602.1601562,3.0439453.1831055h2.5405273v-2.4946289h-1.4189453c-.9155273.0229492-1.7397461.137207-2.609375.3203125l-.5952148-1.1669922c1.0073242.1142578,2.0141602.1601562,3.0444336.1826172h1.5791016v-2.2426758h-1.6708984c-1.0527344.0229492-2.0141602.137207-3.0209961.3203125l-.5722656-1.1899414c.9155273.1142578,1.8310547.1601562,2.7924805.1826172h1.3041992c-.1601562-.0224609-.3432617-.0913086-.5263672-.2514648-.0913086-1.0756836-.8466797-2.4033203-1.5102539-3.2270508l.2514648-.1376953c3.1816406,1.2817383,2.8837891,3.5019531,1.9458008,3.6162109h2.746582c.4804688-1.2358398.9838867-2.8378906,1.2128906-3.9365234,2.3344727.7783203,2.3344727,1.0068359,1.8999023,1.1674805l-.4121094.137207c-.5493164.7553711-1.3735352,1.7851562-2.1513672,2.6318359h2.1513672l.4575195-.6176758c.2519531-.3203125.4350586-.6411133.6181641-.6411133.2744141,0,1.7851562,1.2363281,1.7851562,1.5795898-.0683594.2514648-.2744141.3662109-.5722656.3662109h-5.3554688v2.2426758h2.4716797l.4580078-.640625c.2514648-.3203125.4575195-.640625.640625-.640625.2749023,0,1.7397461,1.2358398,1.7397461,1.5791016-.0688477.2519531-.2519531.3662109-.5722656.3662109h-4.737793v2.4946289h3.4331055l.4350586-.640625Zm-9.3842773,2.1972656c4.0512695,1.3959961,2.7695312,4.3256836,1.4648438,3.2270508-.137207-1.0297852-.9614258-2.3115234-1.7397461-3.0668945l.2749023-.1601562Z"/>
      <path d="m281.0073242,17.7841797c0,1.6708984-1.3276367,2.9980469-2.9755859,2.9980469s-2.9985352-1.3271484-2.9985352-2.9980469c0-1.6479492,1.3505859-2.9755859,2.9985352-2.9755859s2.9755859,1.3276367,2.9755859,2.9755859Zm-.5493164,0c0-1.3276367-1.0986328-2.4033203-2.4262695-2.4033203s-2.4262695,1.0756836-2.4262695,2.4033203c0,1.3505859,1.0986328,2.4262695,2.4262695,2.4262695s2.4262695-1.0756836,2.4262695-2.4262695Z"/>
      <path d="m6.2026367,44.0380859c.2290039-.2514648.4121094-.503418.5952148-.503418.2749023,0,1.3276367,1.1899414,1.3276367,1.5336914-.2060547.1831055-.4121094.2285156-.8925781.2514648-.6181641,1.4648438-1.4648438,2.9985352-2.5175781,4.4174805v.2749023c.4116211.137207.7324219.2744141,1.0297852.4345703.503418-.777832,1.0068359-1.8764648,1.2128906-2.7006836,1.6708984,1.0297852,1.6708984,1.2587891,1.2587891,1.3276367l-.4116211.0683594c-.4580078.5268555-1.0302734,1.0986328-1.5795898,1.5336914,2.6552734,1.5566406,1.7856445,3.6162109.5952148,2.8154297-.2973633-.9614258-1.2358398-2.2202148-2.1054688-3.0444336v4.7836914c.0454102,2.746582.0913086,3.6621094.1826172,5.3789062-.1826172.2514648-.640625.6176758-1.28125.6176758-.2060547,0-.4580078-.2285156-.4580078-.4575195.137207-1.9682617.2060547-2.9755859.2519531-5.9511719v-3.4331055c-.9384766,1.0297852-1.9912109,1.9682617-3.1586914,2.7924805l-.2519531-.3203125c2.4262695-2.2202148,4.6235352-5.6308594,5.6992188-8.6518555h-1.7392578c-1.0986328.0229492-2.105957.137207-3.1586914.3203125l-.5952148-1.1674805c.7324219.1147461,1.4648438.1606445,2.1972656.1835938h1.0073242c0-1.4648438-.0917969-3.2275391-.2749023-4.4174805,2.4492188.7094727,2.4492188.9379883,2.0371094,1.1899414l-.4121094.2519531v2.9755859h1.0073242l.4345703-.5039062Zm11.215332.7094727c.1831055-.2285156.2973633-.4804688.480957-.4804688.2744141,0,1.4418945,1.0073242,1.4418945,1.3505859-.1376953.1831055-.3662109.3203125-.8012695.3891602v1.8310547c.0458984,1.8310547.0688477,2.4487305.137207,3.5473633-.137207.2060547-.640625.5263672-1.3046875.5263672h-.1831055v-.8007812h-4.737793c1.6479492.5947266,1.6479492.8237305,1.2817383.8696289l-.3662109.0458984c-.2060547.3886719-.4575195.7548828-.7094727,1.144043h4.0512695l.4121094-.4345703c.2285156-.2060547.4121094-.4350586.5947266-.4350586.2749023,0,1.4194336,1.0986328,1.4194336,1.4418945-.1831055.1831055-.4121094.2749023-.9155273.2749023-.847168,1.3959961-1.8999023,2.609375-3.1816406,3.6391602,1.5566406.9155273,3.4560547,1.625,5.8134766,2.0371094l-.0224609.2514648c-.5952148.1831055-1.0073242.5722656-1.1445312,1.3276367-2.4262695-.6865234-4.234375-1.6479492-5.6762695-2.8837891-1.9912109,1.3276367-4.4633789,2.2885742-7.4389648,2.8608398l-.2060547-.3891602c2.6552734-.7324219,4.9897461-1.8310547,6.84375-3.2270508-.7783203-.8242188-1.4189453-1.7167969-1.9912109-2.7236328-1.2587891,1.3276367-2.8608398,2.5175781-4.5546875,3.3642578l-.2060547-.3432617c2.4716797-1.6479492,4.6689453-4.3256836,5.6992188-6.8203125h-1.2358398v.5717773c0,.1376953-.4350586.4580078-1.1445312.4580078-.2060547,0-.3891602-.2290039-.3891602-.4580078.0917969-1.2128906.137207-1.8310547.1831055-3.6845703v-2.0830078c-.6865234.7783203-1.3959961,1.4648438-2.1513672,1.9912109l-.2978516-.2744141c.6870117-.7553711,1.3505859-1.7167969,1.96875-2.8383789.7094727-1.3276367,1.4648438-3.4790039,1.5791016-4.737793,2.472168.7324219,2.472168.9614258,2.0600586,1.1445312l-.4121094.1831055c-.2060547.503418-.4350586,1.0068359-.6865234,1.4648438h6.0878906l.4350586-.6870117c.2519531-.3432617.4350586-.6865234.6181641-.6865234.2744141,0,1.7851562,1.3276367,1.7851562,1.6708984-.0458984.2290039-.2290039.3432617-.5493164.3432617h-8.7431641c-.2749023.503418-.5722656.9614258-.8925781,1.3964844l.8007812.3432617h5.9511719l.2973633-.480957Zm-.2290039,1.1674805h-6.2709961v1.9453125h6.2709961v-1.9453125Zm-6.2709961,2.6323242v1.9223633h6.2709961v-1.9223633h-6.2709961Zm1.2358398,5.3100586c-.1831055.2285156-.3891602.4575195-.5722656.6635742.6635742.9384766,1.4648438,1.7397461,2.4033203,2.4492188,1.0756836-.9155273,1.9223633-1.9458008,2.5634766-3.112793h-4.3945312Z"/>
      <path d="m32.4106445,51.7285156c.2514648-.3203125.4345703-.640625.6176758-.640625.2749023,0,1.7167969,1.2358398,1.7167969,1.5791016-.0458984.2290039-.2519531.3432617-.5722656.3432617h-1.9453125c-.3208008,1.4648438-.8696289,2.7236328-1.6020508,3.7993164,2.6318359,1.4194336,1.9682617,3.3188477.7324219,2.7924805-.34375-.4804688-.9160156-1.0527344-1.6484375-1.625-1.4648438,1.5107422-3.4785156,2.5634766-6.2026367,3.3188477l-.1601562-.3432617c2.4262695-.9614258,4.1655273-2.1513672,5.3330078-3.6850586-.6635742-.4350586-1.487793-.8696289-2.3574219-1.2358398-.2290039.4575195-.4575195.8696289-.6411133,1.2128906-.3432617.1601562-.9150391.1147461-1.4418945-.1601562.5722656-.9384766,1.3964844-2.5634766,2.0600586-4.0742188h-1.0297852c-.5952148.0229492-1.1674805.137207-1.7397461.3208008l-.5947266-1.1445312c.8237305.1142578,1.6474609.1601562,2.4716797.1831055h1.1674805c.3203125-.7094727.6176758-1.6479492.7553711-2.3344727,2.1513672.4804688,2.1513672.7094727,1.7163086.8925781l-.4350586.1831055c-.1142578.3432617-.3203125.777832-.5488281,1.2587891h3.9135742l.4350586-.6411133Zm-.2060547-7.6445312c.2290039-.2973633.3891602-.6181641.5722656-.6181641.2744141,0,1.625,1.2133789,1.625,1.5566406-.0458984.2290039-.2519531.3432617-.5493164.3432617h-4.6005859v.4575195c4.9897461,1.2363281,4.3032227,4.234375,2.7924805,3.3876953-.480957-.9384766-1.7397461-2.1513672-2.7924805-2.9526367v1.0986328c.0458984,1.0986328.0458984,1.4648438.1142578,2.0830078-.1142578.2973633-.6865234.6176758-1.1899414.6176758-.2749023,0-.3891602-.2285156-.3891602-.4575195.0688477-.5263672.0688477-.8012695.1142578-1.625v-1.0532227c-1.1899414,1.487793-2.769043,2.7241211-4.6230469,3.6850586l-.2290039-.3662109c1.7851562-1.3041992,3.25-3.0209961,4.1884766-4.875h-1.2587891c-.7783203.0229492-1.5107422.137207-2.2431641.3203125l-.5952148-1.1669922c1.0073242.1142578,2.0141602.1601562,3.0444336.1831055h1.7163086c0-1.487793-.0913086-3.3188477-.2744141-4.5322266,2.4487305.7099609,2.4487305.9384766,2.0371094,1.1904297l-.4121094.2290039v3.112793h2.5634766l.3891602-.6181641Zm-7.8505859-3.1586914c3.6850586,1.5107422,2.4716797,4.1884766,1.2128906,3.1357422-.0913086-.9838867-.8007812-2.2431641-1.4418945-2.9526367l.2290039-.1831055Zm3.4331055,12.0849609c-.3891602.8242188-.8237305,1.7626953-1.2587891,2.609375,1.121582.1601562,2.0825195.3891602,2.8378906.6635742.5493164-.9609375.9384766-2.0595703,1.1674805-3.2729492h-2.746582Zm5.2412109-11.0776367l-.4116211.1142578c-.6640625.8242188-1.487793,1.7397461-2.1748047,2.3115234l-.3203125-.2055664c.5493164-1.0532227,1.0302734-2.5180664,1.2587891-3.5249023l1.0986328.640625c.9614258.2978516.9614258.5263672.5493164.6640625Zm8.2172852,2.8608398c.2514648-.3432617.4345703-.6865234.6176758-.6865234.2749023,0,1.8310547,1.3046875,1.8310547,1.6479492-.0688477.2519531-.2514648.3662109-.5493164.3662109h-1.5107422c-.3886719,3.6162109-1.1899414,6.6601562-2.7695312,9.1552734,1.1904297,1.8994141,2.7695312,3.4790039,4.8066406,4.6235352l-.0683594.2285156c-.6411133.0917969-1.1445312.4350586-1.3505859,1.121582-1.7851562-1.3046875-3.1586914-2.9526367-4.1884766-4.875-1.5791016,2.0141602-3.8222656,3.6391602-6.9350586,4.875l-.2060547-.3203125c3.0439453-1.5791016,5.1269531-3.5019531,6.5229492-5.8364258-.9384766-2.128418-1.5332031-4.5317383-1.9223633-7.1181641-.5952148,1.1669922-1.2358398,2.1972656-1.9682617,3.0668945l-.34375-.1831055c.8242188-1.5561523,1.5336914-3.5249023,2.105957-5.6992188.3662109-1.4648438.6865234-3.6850586.640625-4.9897461,2.609375.6181641,2.609375.847168,2.2202148,1.0532227l-.3891602.2055664c-.3432617,1.3964844-.7324219,2.7470703-1.1899414,4.0283203h4.1884766l.4580078-.6635742Zm-4.9213867,1.3276367c-.1142578.3662109-.2744141.7094727-.4345703,1.0527344.4575195,2.4492188,1.1669922,4.737793,2.1972656,6.7519531,1.0756836-2.265625,1.6479492-4.8520508,1.9223633-7.8046875h-3.6850586Z"/>
      <path d="m47.4487305,59.1445312c-.2519531.1142578-.3891602.0229492-.4345703-.0688477-.0458984-.1142578.137207-.2290039.3203125-.3203125,4.6230469-2.3120117,7.4614258-5.4931641,9.246582-8.2856445-.8237305-.7094727-1.8764648-1.3959961-3.1586914-2.0600586-.4116211-.2055664-.5947266-.2973633-.5488281-.4575195.0454102-.1142578.3886719-.0917969.777832,0,1.1445312.2973633,2.4033203.7553711,3.59375,1.4418945.6635742-1.1674805,1.1669922-2.2202148,1.5332031-3.0668945.2290039-.5039062.3208008-.9384766.3208008-1.3046875,0-.5952148-.6411133-.9155273-.8930664-.984375-.1831055-.0683594-.3432617-.2060547-.2973633-.3432617.0917969-.1831055,1.121582-.2290039,1.6479492-.0913086.6865234.1601562,1.625.8466797,1.9682617,1.5332031.4350586.8701172-.3891602.6181641-.8925781,1.6708984-.6181641,1.2587891-1.3046875,2.4262695-2.0371094,3.5019531.8012695.6635742,1.5107422,1.4189453,2.0141602,2.3574219.6411133,1.1674805.3891602,1.8999023-.1601562,2.105957-.4575195.1601562-.9838867-.0917969-1.6708984-1.5566406-.2514648-.5722656-.6176758-1.121582-1.0756836-1.6479492-2.7924805,3.6162109-6.2485352,6.0654297-10.2539062,7.5761719Z"/>
      <path d="m70.0859375,49.7143555c.1142578-.0229492.3891602.2978516.6865234.4121094.480957.1831055,1.3276367.3662109,2.4492188.3432617s4.4633789.0458984,6.1796875.0229492c4.8295898-.0688477,5.6079102-.0913086,6.7519531-.0913086,1.1674805,0,2.2431641.0913086,2.1289062,1.0756836-.0458984.4116211-1.4418945.4575195-1.8540039.4345703-.8242188-.0454102-3.9370117.0229492-7.1181641,0-1.487793,0-5.722168.0229492-6.6606445.2060547-.8012695.137207-1.3505859.1831055-1.8540039-.1601562-.5263672-.3432617-1.2817383-1.0986328-.9384766-1.9453125.0688477-.1606445.1147461-.2978516.2290039-.2978516Z"/>
      <path d="m91.8989258,59.9228516c-.0224609-.0917969.0917969-.1835938.2978516-.3208008,3.0439453-1.8764648,5.4243164-4.371582,7.0039062-7.3696289.7548828-1.4423828,1.2358398-2.609375,1.5561523-3.6396484-.503418.0688477-.9155273.1376953-1.1445312.1601562-1.3276367.2060547-2.4716797.4121094-2.8378906.5039062-.4121094.1142578-.3432617.1601562-.6640625.1601562-1.0527344-.0229492-1.7851562-1.121582-1.9682617-1.5107422-.0683594-.137207-.0913086-.2744141-.0229492-.3203125.1147461-.0688477.2519531.0229492.6411133.137207.5947266.1831055,1.2587891.2973633,1.8310547.2973633.2744141,0,3.3417969-.1826172,4.3486328-.2744141h.0917969c.2285156-.8925781.3662109-1.625.4804688-2.3115234.1142578-.5952148.2290039-1.6708984-.8012695-2.1518555-.3662109-.1601562-.5263672-.2055664-.5263672-.3203125-.0229492-.2290039.2519531-.2973633.4580078-.3432617.3432617-.0917969,1.625-.0688477,2.7006836.5722656.6635742.4121094.7094727.7553711.640625.9614258-.0913086.2055664-.4804688.5947266-.777832,1.2817383-.1147461.2744141-.3208008,1.0756836-.6640625,2.1743164,1.3276367-.1147461,2.9755859-.2749023,3.2958984-.3208008.480957-.0913086,1.0532227-.5717773,1.2587891-.7094727.2060547-.137207.2290039-.137207.3432617-.137207.1147461,0,.2060547.0688477.34375.1601562.137207.0917969,1.0756836.8242188,1.3730469,1.2363281.0688477.0913086.0688477.1826172.0458984.2744141-.0229492.0688477-.0917969.1601562-.1601562.2519531-.1601562.1831055-.5952148.8237305-.6411133,1.0986328-.5722656,2.7006836-1.3276367,4.9892578-2.0371094,6.7060547-1.144043,2.8378906-2.8608398,3.0668945-3.2958984,2.9755859-.4116211-.0917969-.503418-.2978516-.503418-.5952148,0-.3891602-.1601562-.6635742-.3662109-.8925781-.2060547-.2973633-1.2358398-1.121582-1.4418945-1.3276367-.0913086-.0683594-.2519531-.2290039-.1831055-.3432617.0458984-.0688477.2744141,0,.3891602.0458984.1831055.0913086,1.8540039,1.0297852,2.4716797.9155273.4580078-.0688477,1.0302734-.2978516,1.5336914-1.3046875.9384766-1.9453125,1.8540039-4.6464844,2.1054688-7.2783203.0229492-.2749023-.1826172-.3208008-.3886719-.3208008-.3662109-.0229492-2.5180664.1831055-4.3945312.3891602-.5263672,1.5566406-1.2817383,3.4790039-2.3803711,5.2416992-1.8540039,2.9750977-5.1958008,5.3325195-7.5761719,6.2255859-.2519531.0913086-.4121094.0913086-.4350586.0229492Z"/>
      <path d="m115.8637695,49.7143555c.1142578-.0229492.3891602.2978516.6865234.4121094.480957.1831055,1.3276367.3662109,2.4492188.3432617s4.4628906.0458984,6.1796875.0229492c4.8295898-.0688477,5.6074219-.0913086,6.7519531-.0913086,1.1674805,0,2.2431641.0913086,2.1289062,1.0756836-.0458984.4116211-1.4423828.4575195-1.8540039.4345703-.8242188-.0454102-3.9370117.0229492-7.1181641,0-1.487793,0-5.722168.0229492-6.6606445.2060547-.8012695.137207-1.3505859.1831055-1.8540039-.1601562-.5263672-.3432617-1.2817383-1.0986328-.9384766-1.9453125.0688477-.1606445.1147461-.2978516.2290039-.2978516Z"/>
      <path d="m150.4711914,51.7055664c-.137207,1.4194336-.8466797,5.0585938-2.265625,6.4775391-.5263672.5263672-1.3735352,1.1674805-1.7851562.9384766-.4580078-.2519531-.5493164-.5722656-.8012695-1.121582-.2060547-.4580078-.4121094-.7553711-1.0986328-1.7392578-.1142578-.1835938-.2973633-.3891602-.2290039-.4580078.1147461-.0917969.4350586.1601562.9384766.5263672.5493164.3662109,1.0527344.8012695,1.3964844.7783203.5488281,0,1.3041992-.3432617,2.1054688-2.9985352.7783203-2.6547852,1.0527344-5.2412109-.137207-6.0195312-.6640625-.4350586-2.1972656.0917969-3.2504883.5722656-.5263672,2.3344727-1.5332031,5.5390625-3.4331055,8.6518555-.5493164.8925781-1.2587891,1.3959961-1.762207.8696289-.3432617-.3662109-.137207-1.0756836.7324219-2.2431641,1.9682617-2.6547852,2.7924805-5.0581055,3.2041016-6.7060547-1.0297852.4575195-2.2885742.9384766-2.7006836,1.0297852-.3203125.0917969-1.3959961.0688477-2.2202148-1.2817383-.1831055-.2973633-.3432617-.7094727-.0913086-.777832.1601562-.0688477.3432617.0683594.640625.2285156.6411133.3432617,1.0532227.2978516,1.3276367.2749023.640625-.0229492,2.1054688-.2978516,3.3188477-.7783203.0458984-.1831055.0688477-.3432617.0913086-.4804688.2749023-1.2363281.3891602-2.8842773-.2514648-3.730957-.1831055-.2290039-.7324219-.6865234-.6411133-.9384766.1376953-.4575195,1.9228516-.0683594,2.2661133.2519531.640625.6635742.2290039,1.6479492.0913086,2.4257812-.0454102.34375-.137207,1.0532227-.3432617,2.0371094,1.1674805-.3662109,2.8383789-.6865234,3.7539062-.0224609,1.1899414.8696289,1.2817383,2.4946289,1.144043,4.2338867Zm6.4545898.7783203c-.1831055.0229492-.2973633-.0913086-.777832-.3891602-.4350586-.3432617-2.0830078-.5263672-2.1748047-.5263672-.0913086,0-.2973633-.0229492-.3203125-.0913086,0-.0917969.2290039-.1147461.2290039-.1147461,0,0,1.3959961-.1142578,1.6708984-.1831055.2973633-.0683594.640625-.2060547.8925781-.3891602.2514648-.2060547.1831055-1.2358398-.6865234-2.1743164-.8012695-.8696289-2.2890625-1.487793-2.5634766-1.5561523-.0688477-.0229492-.2290067-.0458984-.2060547-.1376953.0229492-.0683594.2290039-.0454102.2744141-.0454102,3.2275391.0683594,4.9667969,1.9912109,5.0356445,3.4790039.0913086,1.6708984-1.1674805,2.1054688-1.3735352,2.128418Z"/>
      <path d="m176.8164062,55.5507812c-.2290039,2.1972656-2.4487305,3.9140625-9.0634766,4.7382812-.2060547.0224609-.3662109.0224609-.3662109-.1606445-.0229492-.1831055.2744141-.2055664.503418-.2285156.2744141-.0458984,6.4316406-.7783203,7.3242188-4.4633789.137207-.640625.3891602-3.0898438-1.487793-3.6162109-1.8999023-.5039062-3.1357422.9609375-4.6464844,3.2041016-.2973633.4580078-.9609375.8242188-1.2587891.8242188-.2744141-.0229492-1.9682617-.1601562-2.0825195-1.8310547-.0917969-1.3276367.137207-4.1430664.3662109-6.4086914.0683594-.8242188-.2749023-1.2358398-.0917969-1.8081055.137207-.4580078.5952148-.8242188.8242188-1.0073242.7548828-.6635742,2.6777344-1.3500977,2.8608398-1.487793.2060547-.1601562.3891602-.3203125.1142578-.640625-.3662109-.4580078-.640625-.6640625-1.0527344-.8701172-.1601562-.0913086-.3432617-.1826172-.3203125-.2514648.0229492-.1147461.5722656-.137207.7094727-.1147461.3891602,0,2.1972656-.0913086,2.8608398,1.8999023.2978516.8696289-.4116211,1.3505859-.5493164,1.3735352-.137207.0224609-.3432617-.0229492-.5722656-.1601562-.2055664-.1606445-1.0756836-1.0986328-3.4331055.4116211-.3432617.2060547-.4804688.503418-.5493164.9155273-.0913086.5039062.4580078.6865234.3891602,1.6708984-.0458984.4350586-.4804688,3.3417969-.4804688,4.5776367,0,.5493164.0913086.9155273.2514648,1.2587891.1601562.3208008.2519531.4121094.4350586.4121094.1831055.0229492.4804688-.0688477.8466797-.3662109s3.6391602-2.8383789,5.6992188-2.1972656c2.0600586.6181641,2.9985352,2.3344727,2.7695312,4.3256836Z"/>
      <path d="m200.5522461,51.5c.3432617.6635742.3432617,2.7919922-1.762207,4.5771484-1.8540039,1.5795898-3.7539062,2.2890625-4.9213867,1.5107422-.7548828-.4804688-1.3041992-1.9223633.4121094-4.4858398,0,0,.2978516-.3662109.4121094-.1831055.0458984.0683594-.137207.4121094-.2519531.640625-.0683594.1376953-1.0756836,2.5405273,0,3.0214844.3662109.1601562,1.7626953-.1147461,2.9985352-1.2363281,1.2128906-1.1210938,2.6777344-2.9067383,1.487793-4.1196289-1.2358398-1.2358398-3.5708008-.1831055-5.3330078.5263672-.7553711.2973633-1.6020508.7553711-2.4946289,1.3046875.0454102.9155273.0683594,1.7167969.137207,2.2661133.0913086.8466797-.1601562,2.3115234-.3203125,2.5634766-.1601562.2744141-.6181641.6865234-.7553711.6865234-.1601562,0-.3662109-.0229492-.5493164-.4804688-.2060547-.480957-.5263672-1.0302734-.9155273-1.4648438-.3662109-.4121094-1.3964844-.8930664-1.3964844-.8930664-.7094727.4350586-1.0297852.7553711-1.3271484.7553711-1.1445312.0458984-1.9458008-1.9912109-.7324219-2.265625.1601562-.0458984.5263672.1142578.8925781.2973633.9614258-.2519531,2.4716797-1.0986328,3.9594727-1.8999023.0229492-1.2817383.0229492-2.7236328.0229492-3.8222656-.8696289.2978516-1.6479492.5722656-1.9223633.6411133-.4580078.1142578-1.3276367-.0458984-1.6938477-.3208008-.5722656-.3886719-1.0986328-.9150391-1.1904297-1.0297852-.1142578-.1142578-.2060547-.2514648-.1601562-.3432617.0688477-.1601562.5952148.137207.7783203.2060547.3203125.137207,1.1674805.3432617,2.0141602.2519531.4575195-.0458984,1.3730469-.3208008,2.1743164-.5952148-.0229492-.3432617-.0229492-.5722656-.0229492-.6640625-.0458984-.6635742.0229492-1.6933594-.2519531-2.4257812-.2744141-.7094727-1.0527344-.9155273-1.4873047-1.0986328-.1376953-.0688477-.2978516-.0917969-.2978516-.1831055,0-.1376953.2519531-.2519531.4121094-.2978516.8466797-.3203125,1.9453125.0917969,2.4262695.480957.503418.3891602.3891602,1.2817383.3432617,1.487793-.0229492.0913086-.0229492.1826172-.0229492.4575195.137207.2060547.3203125.4121094.5263672.5493164.4350586.2973633.8012695.503418,1.121582.5722656.2973633.0458984.8466797.0683594.8242188.5263672-.0229492.4350586-.1606445.5493164-.5268555.6865234-.1601562.0688477-1.0756836.3891602-2.0825195.7553711-.0229492,1.0527344-.0229492,2.3803711,0,3.6391602.7553711-.3891602,1.4648438-.7553711,2.0371094-.9609375,1.4873047-.5722656,5.9506836-2.6552734,7.4384766.3662109Zm-10.4599609,2.2197266c-.8007812.5263672-1.5791016,1.0761719-2.3574219,1.6479492.7783203.4121094,1.7167969.8930664,1.8769531.9384766.2744141.0688477.3432617-.0229492.4121094-.2744141.0224609-.0688477.0454102-1.0302734.0683594-2.3120117Zm1.0073242-6.5c.2055664-.0917969.3432617-.1601562.3891602-.2060547.2514648-.2290039.3432617-.3203125.0224609-.6181641-.1142578-.1142578-.2285156-.2973633-.3203125-.4804688l-.0683594,1.0297852c0,.0917969,0,.1831055-.0229492.2749023Zm12.1762695,1.6708984c-.3891602.2973633-.984375.0913086-1.1669922-.1147461-.5498047-.6865234-1.0761719-1.2128906-1.9458008-1.3730469-.8696289-.1831055-1.6938477.6865234-1.7851562.7553711-.0917969.0458984-.1601562.0458984-.2519531-.0229492-.0683594-.0458984-.0229492-.2060547.0688477-.3203125.7094727-.847168,1.3276367-1.4418945,2.6547852-1.5336914,1.3276367-.1142578,2.1972656.7094727,2.472168,1.0756836.2744141.3662109.3432617,1.2358398-.0458984,1.5336914Z"/>
      <path d="m222.800293,54.5898438c-.0917969.1142578-.4121094.2973633-.7553711.3662109v1.8994141c.0458984,1.8999023.0688477,2.5175781.137207,3.6621094-.1601562.2519531-.8925781.6181641-1.3500977.6181641-.2290039,0-.3208008-.2290039-.3208008-.4580078.0458984-.1601562.0458984-.2514648.0917969-.503418v-.4804688h-8.2626953v1.0527344c0,.1142578-.4575195.4575195-1.1669922.4575195-.2060547,0-.3891602-.2285156-.3891602-.4575195.0913086-1.3505859.137207-2.0371094.1831055-4.0742188v-2.2885742c-1.4194336.5263672-2.9296875.9838867-4.5322266,1.3500977l-.1601562-.3891602c3.5478516-1.0756836,6.8666992-2.7236328,9.453125-4.7607422-1.0532227-.8696289-1.9458008-1.8310547-2.7011719-2.9067383-1.4648438,1.4648438-3.2958984,2.8383789-5.3100586,3.7768555l-.2514648-.2978516c1.5107422-.9609375,2.9296875-2.2197266,4.0966797-3.5473633,1.0073242-1.121582,1.8540039-2.5634766,2.2202148-3.7768555,2.4951172.6640625,2.4951172.8925781,2.0371094,1.0302734l-.4350586.1142578c-.2973633.3891602-.5947266.7783203-.9379883,1.1904297h5.012207l.480957-.4580078c.2514648-.2290039.4575195-.4575195.640625-.4575195.2749023,0,1.487793,1.1899414,1.487793,1.5332031-.2060547.2060547-.4580078.2749023-1.0297852.2749023-.9384766,1.3046875-2.0830078,2.4946289-3.4106445,3.5703125,2.6552734,1.4418945,5.9052734,2.4262695,9.0639648,2.9526367l-.0458984.2749023c-.5952148.0683594-1.0527344.5263672-1.2358398,1.2128906-1.0756836-.2519531-2.1289062-.5722656-3.1586914-.9384766l.5493164.4580078Zm1.3505859-12.1767578c.2285156-.2744141.3886719-.5722656.5722656-.5722656.2744141,0,1.6020508,1.487793,1.6020508,1.8310547-.1601562.1601562-.3891602.2060547-.8696289.2290039-.5952148.8466797-1.7856445,2.0141602-2.7011719,2.7006836l-.2285156-.1831055c.3662109-.7324219.8696289-1.8994141,1.2358398-2.7924805h-14.2592773c-.0229492,1.5566406-.6411133,2.6323242-1.2363281,3.1132812-.5263672.4345703-1.3500977.5263672-1.625.0454102-.2060547-.4804688.0688477-.9614258.480957-1.2817383.8925781-.5493164,1.7851562-2.0825195,1.7851562-3.7080078h.3662109c.1142578.4121094.1831055.8242188.2060547,1.1904297h6.1108398c0-.9384766-.0454102-2.0600586-.1601562-2.8378906,2.4262695.7094727,2.4262695.9379883,2.0371094,1.1899414l-.3891602.2519531v1.3959961h6.6606445l.4121094-.5722656Zm-11.5126953,11.6958008h7.7817383l.4350586-.5263672c-1.487793-.6176758-2.8842773-1.3730469-4.1430664-2.2661133-1.3500977.984375-2.8608398,1.8310547-4.5546875,2.5634766l.480957.2290039Zm-.2978516,4.8979492h8.2626953v-4.2568359h-8.2626953v4.2568359Zm1.5107422-12.1533203c-.137207.1601562-.2978516.2973633-.4580078.4575195.8242188.984375,1.8769531,1.8540039,3.0898438,2.6323242,1.0986328-.9614258,2.0371094-1.9912109,2.7924805-3.0898438h-5.4243164Z"/>
      <path d="m234.9775391,44.9995117c.2290039-.3203125.4121094-.6635742.5952148-.6635742.2744141,0,1.6708984,1.2587891,1.6708984,1.6020508-.0458984.2514648-.2978516.3662109-.5722656.3662109h-2.7695312v2.7006836c3.9594727,2.1743164,2.7006836,4.8979492,1.4418945,3.7763672-.1831055-.9609375-.8237305-2.2426758-1.4418945-3.2041016v5.5849609c.0458984,2.7460938.0913086,3.6621094.1831055,5.378418-.1831055.3203125-.7783203.6411133-1.2817383.6411133-.2978516,0-.5493164-.2290039-.5493164-.4580078.137207-1.9682617.2060547-2.9755859.2514648-5.9506836v-4.1660156c-.777832,1.96875-1.8081055,3.7768555-3.2041016,5.3789062l-.2973633-.3203125c1.6704102-2.6323242,2.6777344-5.9741211,3.25-9.3613281h-1.0073242c-.5947266.0229492-1.144043.137207-1.6933594.3203125l-.5722656-1.1674805c.7783203.1147461,1.5561523.1606445,2.3803711.1835938h1.144043v-.7783203c0-1.5566406-.0913086-3.4335938-.2973633-4.6923828,2.472168.7324219,2.472168.9614258,2.0830078,1.2363281l-.3891602.2514648v3.9829102h.640625l.4350586-.6411133Zm12.0849609,4.4404297c.2519531-.3208008.4350586-.6640625.6181641-.6640625.2744141,0,1.762207,1.2592773,1.762207,1.6025391-.0229492.2514648-.2519531.3662109-.5493164.3662109h-5.6992188v.8007812c.2973633,1.2817383.7553711,2.3344727,1.3046875,3.2045898.9614258-1.0073242,1.9453125-2.472168,2.4262695-3.5478516,1.9682617,1.3735352,1.9682617,1.6020508,1.5332031,1.6020508h-.4116211c-.7783203.6870117-2.0600586,1.6479492-3.2504883,2.3349609,1.3276367,1.8310547,3.1357422,2.8149414,4.9667969,3.4790039l-.0229492.2514648c-.5263672.137207-.9379883.6411133-1.121582,1.3505859-2.5859375-1.4648438-4.4169922-3.3647461-5.4243164-7.3242188v6.1796875c0,1.1445312-.2290039,1.9458008-2.0600586,2.1513672-.0454102-.4345703-.1601562-.8237305-.4116211-1.0297852-.2749023-.2290039-.7324219-.4121094-1.6254883-.5263672v-.3432617s1.8769531.137207,2.2661133.137207c.3662109,0,.4580078-.1142578.4580078-.4350586v-3.4331055c-1.121582.8925781-2.6782227,2.1513672-4.715332,3.6391602-.0224609.2749023-.1601562.503418-.3203125.6181641l-1.2128906-1.5566406c1.0756836-.4575195,3.6391602-1.762207,6.2026367-3.0898438l.0458984.0917969v-4.5546875h-1.7626953c-1.0986328.0229492-2.1743164.137207-3.25.3203125l-.5722656-1.1674805c1.0073242.1147461,2.0141602.1601562,3.0444336.1831055h2.5405273v-2.4946289h-1.4194336c-.9155273.0229492-1.7392578.137207-2.6088867.3203125l-.5952148-1.1669922c1.0068359.1142578,2.0141602.1601562,3.0439453.1826172h1.5795898v-2.2426758h-1.6708984c-1.0532227.0229492-2.0141602.137207-3.0214844.3203125l-.5722656-1.1899414c.9155273.1142578,1.8310547.1601562,2.7924805.1826172h1.3046875c-.1601562-.0224609-.3432617-.0913086-.5263672-.2514648-.0917969-1.0756836-.8466797-2.4033203-1.5107422-3.2270508l.2519531-.1376953c3.1811523,1.2817383,2.8837891,3.5019531,1.9453125,3.6162109h2.746582c.480957-1.2358398.984375-2.8378906,1.2133789-3.9365234,2.3344727.7783203,2.3344727,1.0068359,1.8994141,1.1674805l-.4121094.137207c-.5493164.7553711-1.3730469,1.7851562-2.1513672,2.6318359h2.1513672l.4580078-.6176758c.2519531-.3203125.4345703-.6411133.6181641-.6411133.2744141,0,1.7851562,1.2363281,1.7851562,1.5795898-.0688477.2514648-.2749023.3662109-.5722656.3662109h-5.355957v2.2426758h2.472168l.4575195-.640625c.2519531-.3203125.4580078-.640625.6411133-.640625.2744141,0,1.7392578,1.2358398,1.7392578,1.5791016-.0683594.2519531-.2519531.3662109-.5722656.3662109h-4.737793v2.4946289h3.4331055l.4350586-.640625Zm-9.3842773,2.1972656c4.0512695,1.3959961,2.7695312,4.3256836,1.4648438,3.2270508-.137207-1.0297852-.9609375-2.3115234-1.7392578-3.0668945l.2744141-.1601562Z"/>
      <path d="m255.0742188,43.0996094c-.0458984-.0683594-.1831055-.2285156-.137207-.3203125.1142578-.1831055.2973633-.0683594.4116211,0,.2749023.1831055,1.6938477.9384766,1.6938477,2.9755859,0,.8237305-1.0297852,2.7924805-1.3505859,4.1655273-.3886719,1.5795898-.2744141,2.3120117-.0683594,3.0444336.0458984.1826172.0229492.2744141.2060547.2973633s.2514648-.1147461.3662109-.3891602c.1142578-.2744141.9384766-2.2202148,1.0297852-2.4946289.0913086-.2749023.1831055-.2519531.2519531-.2290039.0454102.0229492.0683594.1142578,0,.3432617-.0688477.2519531-.8242188,2.9526367-.8012695,4.2802734.0458984,1.3500977.4580078,3.2041016.5263672,3.5703125.0688477.3662109-.2290039.6865234-.5263672.7094727-.4580078.0458984-1.0527344-.5493164-1.2817383-1.1669922-.2519531-.6181641-.8466797-2.2890625-.9155273-5.4707031-.0458984-3.0209961.9384766-5.1494141,1.1904297-7.4155273.1142578-.8237305-.5268555-1.8310547-.5952148-1.8999023Zm5.9277344,12.3828125c.5039062.3662109,1.0532227.7324219,1.9458008.9609375.8696289.2290039,2.9980469.1835938,5.0351562-.1826172.984375-.1835938,1.5336914.3662109,1.5566406.8237305,0,.4804688-.5493164.6865234-.9384766.8012695-.3891602.1142578-4.7836914.640625-6.4775391-.3891602-.9155273-.5722656-1.3959961-1.5566406-1.4648438-1.7397461-.0913086-.1601562-.1601562-.3891602-.0913086-.4575195.1142578-.0917969.2973633.0913086.4345703.1831055Zm.6411133-10.8491211c.1601562.0688477.8466797.3203125,1.8310547.2749023.984375-.0458984,3.1586914-.4350586,3.6391602-.5952148s1.2358398.2290039,1.3505859.640625c.1142578.4121094-.4121094.7094727-.9155273.8696289-.5039062.1606445-2.9072266.5722656-4.3032227.2290039-1.0756836-.2514648-1.8999023-.8237305-2.1743164-1.3730469-.0688477-.137207-.0917969-.2519531-.0458984-.3208008.0688477-.1142578.4580078.2060547.6181641.2749023Z"/>
      <path d="m274.987793,50.5385742l-.1606445-.3432617c2.4951172-1.4423828,5.3100586-3.9829102,7.2558594-6.4775391.9155273-1.1904297,1.625-2.5405273,1.8764648-3.7993164l2.8154297.8696289c-.0683594.2744141-.3432617.3662109-.8925781.4121094,1.9453125,2.8837891,5.5849609,5.3554688,9.4526367,6.9580078l-.0454102.3432617c-.6181641.1142578-1.1445312.6176758-1.2817383,1.1899414-3.6391602-1.8764648-6.980957-4.875-8.5375977-8.2167969-2.0371094,3.3188477-6.3168945,7.0957031-10.4824219,9.0639648Zm5.2871094,9.3842773c.0454102.3886719.0224609.5263672.0683594.6635742-.0683594.2744141-.7094727.6176758-1.3271484.6176758-.2519531,0-.3891602-.2285156-.3891602-.4575195.0683594-.8696289.0913086-1.3046875.137207-2.609375v-1.5561523c0-1.5566406-.0917969-3.4335938-.2978575-4.6923828l1.9228575.8701172h9.2695312l.34375-.480957c.2055664-.2290039.3432617-.4804688.5263672-.4804688.2744141,0,1.762207,1.121582,1.762207,1.4648438-.1601562.1831055-.503418.3662109-.9155273.4575195v2.2890625c.0458984,2.265625.0688477,3.0209961.1601562,4.4174805-.1831055.2744141-.9614258.5952148-1.4418945.5952148-.2290039,0-.3203125-.2290039-.3203125-.4580078.0454102-.1601562.0454102-.2519531.0913086-.5263672v-.503418h-9.5898438v.3891602Zm3.0209961-10.7578125c-1.0527344.0229492-2.0141602.1376953-3.0209961.3203125l-.5952148-1.1669922c1.0068359.1142578,2.0141602.1601562,3.0439453.1831055h4.7836914l.4580078-.6635742c.2514648-.3208008.4345703-.6640625.6176758-.6640625.2749023,0,1.8310547,1.3046875,1.8310547,1.6479492-.0683594.2290039-.2744141.3432617-.5952148.3432617h-6.5229492Zm-3.0209961,9.6816406h9.5898438v-5.4243164h-9.5898438v5.4243164Z"/>
      <path d="m305.2695312,59.0068359c0-.1826172.2514648-.2285156.3203125-.2285156,3.5249023-.2060547,6.7978516-1.8310547,7.5532227-4.4863281.6865234-2.3574219-.480957-3.8681641-1.96875-4.4174805-2.5175781-.8925781-6.1567383,1.8540039-6.637207,2.1743164-.4121094.2978516-1.1904297,1.0073242-1.9916992,1.1674805-.7094727.1147461-1.6933594-.6865234-1.9682617-.9614258-.2514648-.2060547-.3432617-.4345703-.2514648-.5722656.137207-.2055664.3886719-.137207.5722656-.0683594.2055664.0458984.640625.2060547,1.144043.1142578,1.1904297-.2285156,6.0883789-3.5932617,9.2924805-2.4946289,3.2275391,1.1445312,3.4794922,3.4560547,3.2275391,5.0581055-.137207.8012695-.8466797,4.5776367-8.972168,4.8984375-.0688477,0-.2973633,0-.3203125-.1835938Z"/>
      <path d="m330.4243164,44.8623047c.0913086.1831055.0913086.5263672-.4350586.9155273-.8012695.5952148-1.8310547,1.2128906-2.9296875,1.6708984-.8466797,3.9365234-2.0371094,9.4067383-2.2885742,10.2080078-.3891602,1.2358398-.6640625,1.487793-1.3046946,1.2817383-.6411062-.2290039-.7783132-.9155273-.4121023-1.6020508.0688477-.1606445.7324219-1.6938477,1.121582-2.7924805.640625-1.7167969,1.3276367-3.9599609,1.8310547-6.7060547-.7783203.2514648-1.5566406.3886719-2.2431641.3662109-.503418-.0229492-1.3500977-.480957-1.9453125-1.0986328-.1831055-.1835938-.137207-.3208008-.137207-.3208008.0913086-.137207.2744141,0,.4575195.0458984.1831055.0688477,1.3959961.503418,3.1816406-.1142578.2285156-.0688477.4345703-.1606445.6635742-.2519531.0917969-.0458984.1831055-.0688477.2744141-.1142578.0917969-.6640625.1835938-1.3735352.2519531-2.0830078.0229492-.1831055.1142578-1.1674805-.1142578-1.6479492-.2060547-.4580078-.8925781-.7783203-.9614258-.8696289-.0688477-.0917969-.0913086-.137207-.0458984-.2519531.0458984-.1831055,1.0986328,0,1.5795898.2749023.4804688.2514648,1.1669922.5493164.9838867,1.5561523l.0229492.0229492c.0229492.0229492.3662037.5263672.9155273.8012695.2519531.137207.5493164.2514648.847168.3203125.2285084.0688477.5488281.137207.6865234.3891602Zm-1.8769531,0c0-.2749023-.2973633-.5493164-.5263672-.8242188l-.1831055-.1831055c-.0917969.3891602-.2290039,1.0532227-.4121094,1.8769531.2290039-.1142578.4350586-.2290039.6635742-.3432617.1835938-.1142578.4580078-.2519531.4580078-.5263672Zm9.9106445,13.0234375c.3662109,1.1899414-1.5566406,1.2587891-3.1586914,1.2358398-1.9453125-.0458984-3.753418-.7553711-4.4174805-2.0600586-.6635742-1.3046875-.1831055-2.5864258-.1142578-2.8154297.1142578-.3432617.3203125-.5947266.4575195-.5717773.1376953.0454102.0229492.2973633,0,.7553711-.0224609.2055664-.0683594,1.3500977.847168,2.1513672.5952148.5493164,1.9682617,1.0756836,3.8222656.8466797,1.8999023-.2060547,2.3574219-.137207,2.5634766.4580078Zm.5722656-10.0253906c-.2060547.480957-1.5566406.5263672-2.2661133.7553711-.4804688.1601562-1.0756836.503418-1.3505859.6640625-.137207.0913086-.3432617.1142578-.3662109.0454102-.0224609-.0454102-.0454102-.1142578.0458984-.2285156.1376953-.1831055,1.1674805-.847168,1.6708984-1.4194336.1601562-.1831055.2749023-.3203125.2749023-.4804688,0-.137207-.2290039-.3432617-.3208008-.4350586-.8007812-.6176758-1.9912109-.6176758-2.5175781-.5263672-.2519531.0229492-.4345703-.0683594-.4804688-.1601562-.0458984-.1142578.0683594-.2744141.2060547-.3203125,1.6479492-.6865234,3.3642578-.1831055,4.1655273.3662109s1.0297852,1.5107422.9384766,1.7392578Z"/>
      <path d="m357.0439453,59.8310547c-3.25,1.6020508-6.4086914.0458984-6.706543-2.746582-.0913086-.9384766-.0913086-2.0371094-.0224609-3.2270508-1.0073242-.34375-1.8310547-.8701172-1.8310547-1.7397461.0224609-1.1899414,1.3730469-2.5634766,2.4033203-3.4560547.0913086-.7553711.2055664-1.4648438.3203125-2.105957-.984375-.4345703-1.9912187-1.0297852-2.472168-1.4418945-.137207-.1142578-.2514648-.2055664-.2060547-.3662109.0688477-.137207.3208008-.0229492.4580078.0229492.6176758.2749023,1.5107422.4121094,2.4033203.5952148.1601562-.9614258.2744141-1.625.2744141-1.8540039.0458984-.9384766.0917969-1.1669922-.137207-1.8540039-.137207-.3891602-.8242188-1.0297852-.7324219-1.2587891.0917969-.2973633,1.0068359.1147461,1.0986328.1601562.3662109.2060547,1.4648438.984375,1.2587891,2.1518555-.2060547,1.0756836-.640625,1.8994141-.9155273,2.8149414.503418.1147461.984375.2290039,1.3959961.3891602.6181641.2519531.8701172.8242188.8701172,1.1904297s-.2978516.640625-.5952148.6635742c-.7553711.0688477-1.5791016.4121094-2.3115234.8696289-.2060547,1.1674805-.4121094,2.5864258-.5268555,4.1201172.8701172.1142578,1.8310547.0913086,2.1748047.1142578.7094727.0229492,1.0756836.2973633,1.1210938.7324219.0688477.4121094-.3203125.7094727-.9838867.7094727-.4350586.0229492-1.3959961-.0458984-2.3574219-.2744141-.0229492.7324219,0,1.4648438.0683594,2.1743164.2978516,3.5703125,4.097168,3.0898438,5.1728516,2.3574219,1.1445312-.7553711,2.2202148-2.9067383.8925781-5.3100586-1.3046875-2.3803711-2.8378906-3.4331055-3.1811523-3.6621094-.0917969-.0688477-.2519531-.1831055-.2060547-.3203125.0458984-.1147461.2973633.0229492.4345703.0683594.34375.1601562,3.2734375,1.8081055,4.5092773,3.8452148.9838867,1.625,1.4648438,5.1040039-1.6708984,6.6376953Zm-6.6376953-7.2099609c.0917969-1.1210938.2290039-2.2885742.3891602-3.387207-.8925781.7783203-1.5336914,1.7392578-1.4648438,2.5405273.0458984.4350586.4804688.6865234,1.0756836.8466797Zm1.3276367-4.6459961c.137207-.1147461.2290039-.1831055.2519531-.2060547.2514648-.1831055.503418-.2749023.5488281-.5263672.0688477-.2290039-.1601562-.2519531-.5488281-.3891602h-.0229492c-.0688477.3203125-.1606445.6865234-.2290039,1.121582Z"/>
      <path d="m385.402832,51.8886719c-.777832,7.3701172-9.7275391,7.4389648-10.2304688,7.5073242-.7324219.0688477-1.1445312.0688477-1.1674805-.0913086-.0458984-.137207.5952148-.2060547.8925781-.2519531,2.5405273-.4121094,8.4228516-2.1513672,8.8803711-7.484375.480957-5.3330078-3.3183594-7.484375-6.5229492-7.6674805-.2973633-.0229492-.5952148-.0229492-.8925781,0,.3662109.7553711,1.3500977,3.1586914-.3208008,7.0952148-1.8535156,4.371582-4.53125,6.4316406-5.4697266,6.3173828-.9614258-.1147461-2.5869141-1.9228516-2.7695312-4.7607422-.3891602-5.7451172,4.371582-8.7661133,7.6674805-9.2929688,3.6850586-.5947266,10.6889648,1.2133789,9.9331055,8.6289062Zm-9.4296875-7.9648438c-2.8154297.3203125-5.5849609,2.1743164-6.6601562,5.4472656-1.2363281,3.7763672.6865234,5.8134766,1.144043,6.0424805.4350586.2290039,1.0073242-.2290039,1.0073242-.2290039,2.6547852-1.9453125,4.1425781-5.6992188,4.4404297-6.7519531.2973633-1.0756836.4575195-3.2270508.0683594-4.5087891Z"/>
      <path d="m407.0102539,49.3251953c-.6865234.9384766-1.8769531,1.5566406-2.9296875,1.9912109-.8696289.3891602-2.4716797.9614258-3.9824219,1.6254883-.1376953,1.2587891-.0458984,2.9526367-.0688477,3.3188477-.0454102.4804688-.4804688.8466797-.8466797.8237305s-.6635742-.3662109-.6870117-.8237305c0-.2519531.1376953-1.4648438.2290039-2.6323242-.4350586.2060547-.8466797.4575195-1.1899414.6865234-1.1445312.8012695-1.7397461,2.0371094-1.625,2.8837891.1142578.9155273,1.3046875,1.3046875,2.0595703,1.3964844,1.8085938.1601562,2.4492188.0454102,3.8681641-.2978516,1.2363281-.2973633,1.7397461-.1831055,1.9228516.3208008.2519531.7094727-1.2363281,1.1669922-1.9453125,1.2587891-.8701172.137207-2.105957.2060547-3.59375.0458984-2.609375-.2978516-3.0668945-1.5107422-3.1586914-2.5410156-.0688477-.6865234.1831055-2.1743164,1.9228516-3.4560547.4575195-.3203125,1.0756836-.6635742,1.7851562-1.0068359.0229492-.5263672.0229492-.984375-.0229492-1.3046875-.1601562-1.2358398-.5263672-1.7167969-1.3271484-1.7851562-.984375-.0917969-2.2890625,1.4189453-3.0214844,2.4257812-.1831055.2519531-.3432617.480957-.5263672.7099609-.2290039.2973633-.7324219,1.0527344-.984375,1.2358398s-.7783203-.0917969-.9384766-.4350586c-.1601562-.3662109-.0683594-1.0297852.1831055-1.3276367.3432617-.3891602,1.762207-1.4418945,2.609375-2.8837891.6411133-1.0986328,1.3959961-2.6777344,1.8769531-4.2573242-.7783203.2060547-1.6254883.3208008-2.4033203.2060547-.7783203-.1142578-1.5107422-.6865234-1.8999023-1.0068359-.0683594-.0688477-.1142578-.1601562-.0683594-.2060547.0683594-.1142578.2973633-.0229492.4121094.0229492.1367188.0454102.9379883.3203125,1.8764648.2744141.5263672-.0454102,1.4648438-.1601562,2.4262695-.503418.0458984-.2744141.0917969-.5263672.137207-.8012695.0688477-.5717773,0-1.2817383-.6865234-1.8310547-.1147461-.0913086-.137207-.0913086-.0913086-.2973633.0454102-.2060547.2285156-.2060547.3427734-.2060547.1376953,0,1.2822266.1601562,1.4882812.4350586.1142578.2060547.1367188.5493164.0913086.9384766.2514648.2514648.8012695.3432617,1.3276367.2744141.2060547-.0913086.9838867-.2290039,1.0756836.1601562.137207.4580078-.503418,1.0532227-1.2133789,1.4418945-.3203125.1601562-1.0297852.5263672-1.8994141.8242188-.4121094,1.3276367-.9384766,2.8837891-1.6025391,4.371582.7324219-.3891602,1.5336914-.3891602,2.1972656-.2060547,1.3046875.3432617,1.6708984,2.2202148,1.6708984,2.2202148.34375-.8012695.7553711-1.7851562,2.0600586-3.1357422.9155273-.9614258,2.5634766-1.9912109,3.9370117-1.8081055,1.4873047.2060547,2.0595703,1.7167969,1.2128906,2.8608398Zm-9.0869141-5.6762695c.2519531-.1142578.480957-.2744141.7099609-.4345703-.0229492-.0917969-.0688477-.1831055-.2290039-.2749023-.0913086-.0683594-.1831055-.0913086-.2749023-.1142578-.0454102.2519531-.1142578.5263672-.2060547.8237305Zm7.965332,3.6621094c-.7553711-.5947266-2.4262695.1376953-3.6162109,1.3276367-.9614258.9614258-1.4648438,1.7397461-2.0141602,3.5019531,0,.0229492-.0229492.0458984-.0229492.0458984,1.0756836-.5039062,2.2431641-1.0527344,3.2958984-1.6938477,1.9458008-1.1445312,2.9296875-2.7006836,2.3574219-3.1816406Z"/>
      <path d="m415.3422852,49.4169922c.2060547-.3203125.3662109-.6640625.5493164-.6640625.2749023,0,1.8081055,1.4194336,1.8081055,1.7626953-.1601562.1601562-.503418.3432617-1.0756836.4121094v6.1567383c1.5561523,1.8540039,3.2958984,2.128418,7.1411133,2.128418,2.6552734,0,6.2026367,0,8.9033203-.0913086v.3203125c-.640625.1147461-1.0068359.5493164-1.0986328,1.2358398h-7.8046875c-4.0512695,0-5.8823242-.5263672-7.4614258-3.1357422-.7783203,1.0073242-2.0371094,2.3579102-2.8154297,3.090332.0688477.2973633-.0454102.4345703-.2060547.5493164l-1.0527344-1.8310547c.7553711-.3662109,1.9458008-1.0761719,3.0444336-1.7856445v-6.8432617h-.9384766c-.5952148.0229492-1.0986328.137207-1.6484375.3203125l-.5263672-1.1674805c.6411133.1147461,1.2822266.1606445,1.9228516.1831055h.8925781l.3662109-.640625Zm-2.4262695-8.4458008c5.2416992,1.8999023,4.0283203,5.6303711,2.4262695,4.371582-.2744141-1.4189453-1.5332031-3.1816406-2.6552734-4.1884766l.2290039-.1831055Zm16.3652344,8.46875c.2290039-.2978516.4116211-.5952148.5952148-.5952148.2744141,0,1.625,1.1445312,1.625,1.487793-.0458984.2514648-.2749023.3662109-.5722656.3662109h-3.2041016v2.7236328h1.8994141l.4345703-.6411133c.2519531-.3203125.4350586-.6635742.6181641-.6635742.2749023,0,1.8085938,1.2587891,1.8085938,1.6020508-.0688477.2519531-.2749023.3662109-.5722656.3662109h-10.4375c-1.1899414.0229492-2.2885742.1376953-3.4331055.3208008l-.5717773-1.1674805c.9609375.1142578,1.9223633.1601562,2.8837891.1831055h1.3500977v-2.7236328h-1.0068359c-.5952148.0229492-1.1674805.137207-1.7397461.3203125l-.5947266-1.1674805c.7548828.1147461,1.5102539.1606445,2.2885742.1835938h1.0527344c0-.7099609-.0454102-1.6025391-.137207-2.2431641,2.0830078.6635742,2.0830078.8925781,1.8081055,1.0986328l-.2749023.1831055v.9614258h3.2734375c0-.7099609-.0458984-1.6025391-.1376953-2.2431641,2.0371094.6635742,2.0371094.8925781,1.7626953,1.0986328l-.2744141.1831055v.9614258h1.144043l.4121094-.5952148Zm-5.4931641,6.1796875l-.503418.0458984c-1.121582.9384766-3.1586914,2.0825195-5.1499023,2.6547852l-.1831055-.3432617c.3432617-.1601562.6865234-.3662109,1.0297852-.5952148,1.2817383-.8007812,2.6547852-2.128418,3.2045898-3.2729492l1.1445312.8242188c.9838867.4116211.9838867.640625.4575195.6865234Zm-1.121582-14.7172852c.1831055-.2285156.2978516-.4575195.4804688-.4575195.2749023,0,1.4423828.9838867,1.4423828,1.3276367-.1147461.1601562-.3896484.3203125-.7783203.3886719v.8242188c.0458984.8242188.0458984,1.0986328.0913086,1.5107422-.0913086.2744141-.7324219.5947266-1.1899414.5947266h-.1831055v-.7324219h-2.8154297v1.8310547c0,.2290039.0458984.2978516.5952148.2978516h1.3959961c.6411133,0,1.1674805,0,1.3735352-.0229492.137207,0,.2285156-.0229492.3203125-.137207.1142578-.1831055.2978516-.6640625.4345703-1.2133789h.2749023l.0688477,1.2133789c.4121094.137207.5493164.2514648.5493164.503418,0,.5493164-.5722656.7324219-3.0668945.7324219h-1.6484375c-1.3271484,0-1.5332031-.2973633-1.5332031-1.1674805v-1.6933594c0-.5952148-.0229492-1.2817383-.0917969-1.8085938l1.6025391.8012695h2.5405273v-1.6938477h-1.3959961c-.8701172.0229492-1.6943359.1376953-2.5180664.3208008l-.5952148-1.1674805c.9614258.1142578,1.9228516.1601562,2.9296875.1831055h1.3964844l.3203125-.4350586Zm.4345703,9.7963867v2.7236328h3.2734375v-2.7236328h-3.2734375Zm6.6835938-9.8188477c.1831055-.2290039.2978516-.4580078.4804688-.4580078.2749023,0,1.4423828,1.0297852,1.4423828,1.3730469-.1147461.1376953-.3891602.2978516-.7553711.3662109v.8242188c.0454102.8242188.0454102,1.0986328.0913086,1.5107422-.1142578.2744141-.7324219.5947266-1.2128906.5947266h-.1831055v-.7324219h-2.8383789v1.8310547c0,.2290039.0458984.2978516.5952148.2978516h1.5336914c.6635742,0,1.2587891,0,1.4418945-.0229492.1601562,0,.2514648-.0229492.3203125-.137207.137207-.2060547.3208008-.7553711.480957-1.3276367h.2744141l.0458984,1.3046875c.4345703.1601562.5493164.2744141.5493164.5263672,0,.5493164-.5722656.7324219-3.1816406.7324219h-1.762207c-1.3505859,0-1.5791016-.2973633-1.5791016-1.1674805v-1.6933594c0-.5952148-.0234375-1.2817383-.0917969-1.8085938l1.625.8012695h2.5864258v-1.6938477h-1.4194336c-.9150391.0229492-1.7392578.1376953-2.6088867.3208008l-.6181641-1.1674805c1.0073242.1142578,2.0141602.1601562,3.0214844.1831055h1.4418945l.3203125-.4575195Zm-3.9365234,13.8242188c7.8046875,1.5336914,5.2641602,4.7607422,3.9135742,3.4101562-.7094727-.9609375-2.1054688-2.1054688-4.0512695-3.0668945l.1376953-.3432617Z"/>
      <path d="m435.7592773,51.2939453c.1142578-.3208008.7783203-.1147461,1.2587891-.2290039.4804688-.0917969.8242188-.3891602,1.3964844-.8242188.8007812-.6176758,2.7919922-2.402832,3.3876953-2.9750977.7548828-.7099609,1.5556641-.8012695,2.5175781-.0229492.9609375.777832,4.9433594,4.7607422,9.4980469,6.0883789,1.3964844.3886719,1.3964844,1.2587891,1.2363281,1.6020508-.2285156.4804688-.984375.6635742-1.9453125.2060547-3.1816406-1.5336914-5.4931641-3.6621094-9.0644531-7.0498047-.5722656-.5263672-1.0986328-.9838867-2.0595703.0917969-.5498047.5947266-1.9912109,2.0595703-2.8154297,3.4560547-.2285156.4116211-.5947266.9838867-1.3046875,1.1669922-1.3730469.3432617-2.265625-1.0527344-2.1054688-1.5102539Zm12.2675781-6.1801758c0-.2055664.984375.0688477,1.3740234.1606445.3427734.0683594,2.7236328.5947266,3.0898438,2.0595703.1142578.4580078-.0458984.7553711-.3203125.8701172-.2519531.1142578-.8242188,0-1.2363281-.5722656-.4345703-.6181641-1.1445312-1.3276367-1.8076172-1.7856445-.2519531-.1831055-1.1220703-.5717773-1.0996094-.7324219Zm1.9003906-1.625c.0224609-.1831055.9609375,0,1.3505859.0688477.3427734.0458984,2.6318359.4345703,3.0664062,1.8081055.1376953.4350586,0,.7553711-.2509766.8696289-.2519635.1147461-.8017578.0229492-1.2138672-.4804688-.4580078-.5722656-1.1669922-1.2128906-1.8535156-1.625-.2294922-.1376953-1.0986328-.480957-1.0986328-.6411133Z"/>
      <path d="m472.5874023,59.8769531c-.3203125.137207-.7099609-.1831055-.984375-.4350586-.2744141-.2514648-1.1904297-1.2128906-2.4716797-2.0141602-.2294922,1.1904297-1.0761719,2.7236328-3.6396484,2.7006836-1.7851562,0-3.4335938-.8237305-3.4335938-2.265625,0-1.4194336,1.6943359-2.3803711,3.6855469-2.3574219.5488281,0,1.3046875.0683594,2.1513672.2514648-.1376953-1.3046875-.2285156-2.609375-.2744141-3.9365234-1.0527344.2060547-2.1289062.3203125-2.9755859.2285156-1.8085938-.2055664-2.5410156-1.2587891-2.7919922-1.762207-.0917969-.2060547-.0917969-.2973633-.0458984-.3432617.0908203-.0688477.2285156.0458984.3662109.137207.2285156.1601562,1.5791016,1.0302734,3.2724609.8925781.5947266-.0454102,1.3740234-.1142578,2.1513672-.2514648,0-1.3276367.0234375-2.6552734.1152344-3.9824219-.5498047.0454102-1.0761719,0-1.5107422-.1835938-.6416016-.2514648-1.3964844-.9150391-1.6708984-1.28125-.0917969-.1376953-.2060547-.3208008-.1376953-.4121094.0458984-.0458984.1826172-.0917969.4345703.0683594.34375.2519531.8242188.6411133,1.6708984.7099609.3212891.0224609.8017578-.0458984,1.3505859-.1606445.1601562-1.0068359.3662109-2.0825195-.0458984-3.0209961-.1826172-.4121094-.7783203-.9155273-.7324219-1.121582.0458984-.2519531.3896484-.3662109.7783203-.2973633.4121094.0913086,1.5332031.5722656,1.5332031,1.5791016,0,.640625-.4121094,1.8081055-.5488281,2.4262695-.0234375.0683594-.0234375.137207-.0458984.2060547.5947266-.1606445,1.1220703-.3208008,1.3271484-.3891602.5273438-.1601562.8925781,0,.9619141.2744141.0458984.2749023-.0693359.6865234-.6640625.9384766-.3886719.1601562-1.0527344.3891602-1.8076172.5493164-.0917969.8925781-.1152344,2.0371094-.0917969,3.6162109v.2749023c.6865234-.1831055,1.3271484-.4121094,1.7617188-.7094727.8242188-.5722656,0-1.121582-.3427734-1.6938477-.0458984-.0688477-.0683594-.137207-.0917969-.2290039-.1601562-.4116211.2294922-.1142578.4121094.0688477.3662109.3203125.7548828.4804688,1.2363281.5952148.4345703.1142578.8232422.0683594,1.0751953.3203125.2519531.2744141.2978516,1.2358398-.7783203,1.7392578-.5488281.2519531-1.8076172.6870117-3.2041016,1.0073242.1376953,1.9223633.4580078,3.4560547.5722656,4.4858398,1.3505859.4350586,2.7236328,1.1674805,3.5253906,2.3349609.6171875.8925781.0449219,1.3959961-.0917969,1.4418945Zm-4.6464844-3.0898438c-.7324219-.3208008-1.5332031-.5263672-2.4033203-.5493164-1.7392578-.0229492-2.6552734.6865234-2.6552734,1.6704102,0,.4580078.9384766,1.0761719,2.3574219,1.0761719.9384766,0,2.5869141-.4121094,2.7011719-2.1972656Z"/>
      <path d="m499.9165039,46.0068359c-.0693359.6635742-.984375.503418-1.3271484.4575195-.2978516-.0458984-3.4794922-.5263672-6.3173828-.2519531-.0458984,1.3964844-.0917969,2.9985352-.0693359,4.1430664.4804688.9155273.6875,2.3344727.6640625,4.1196289-.0683594,4.5317383-4.2802734,5.9282227-4.7832031,6.0883789-.1601562.0688477-.2978516.0917969-.34375,0-.0458984-.1142578,0-.2290039.2060547-.3203125,3.5478516-1.5795898,3.7539062-5.2646484,3.7539062-5.2646484-.1601562.2978516-.8701172.8701172-1.3964844.847168-1.0527344,0-1.5791016-1.1674805-1.7851562-1.6020508-.2060547-.4350586-.5947266-.9384766-.7548828-2.1748047-.1152344-.7548828.1601562-2.4946289,1.9677734-2.8608398.5947266-.137207,1.0986328-.0688477,1.5107422.137207.0683594-.503418.1142578-1.3959961.0917969-2.9980469-2.7470703.3891602-3.5253906.8007812-5.1728516,1.5107422-.4580078.2055664-1.8085938.9379883-3.0898438.137207-.5498047-.3208008-1.0068359-.8242188-1.1445312-.984375-.1826172-.1831055-.2519531-.3891602-.1601562-.4804688.2060547-.2060547.5722656.0913086,1.1669922.1601562.6181641.0458984,1.4882812.0688477,2.4033203-.137207.640625-.1376953,3.6396484-.7099609,5.9736328-1.0761719,0-.5488281-.0449219-1.1669922-.0683594-1.8535156-.0458984-.8242188-.4345703-1.5107422-.7324219-1.7626953-.2285156-.1831055-.5263672-.2514648-.5039062-.4345703.0234375-.1601562.1152344-.2290039.2978516-.2978516.2060547-.0683594.7548828-.137207,1.3505859.1376953.6640625.2973633.8691406.5263672.9609375.9150391.0683594.34375-.0224609.5498047-.0917969.8012695.7099609.4350586,2.3574219,1.3959961,3.4794922,1.6938477,1.4423828.4121094,2.3349609.3203125,2.8154297.4345703.5488281.0917969,1.1894531.2519531,1.0986328.9160156Zm-8.7890625,6.1108398c-.0234375-1.5791016-.5263672-2.3115234-1.1220703-2.2885742-.2744141.0224609-1.921875.5947266-1.5556641,2.0825195.3427734,1.487793,1.0986328,2.1743164,1.8310547,2.1743164.4570312,0,.8925781-.3886719.8466797-1.9682617Zm3.1357422-7.4614258c-.1835938-.1142578-1.2128906-.8696289-1.8085938-1.3046875-.0458984.3662109-.0917969,1.0986328-.1367188,1.9682617.6865234-.0913086,1.2587891-.1601562,1.5791016-.1601562.2509766,0,.7089844-.0458984.7324219-.137207.0224609-.0688477-.1601562-.2290039-.3662109-.3662109Z"/>
      <path d="m509.8959961,57.8398438c0,1.6708984-1.3271484,2.9980469-2.9746094,2.9980469-1.6484375,0-2.9990234-1.3271484-2.9990234-2.9980469,0-1.6479492,1.3505859-2.9755859,2.9990234-2.9755859,1.6474609,0,2.9746094,1.3276367,2.9746094,2.9755859Zm-.5488281,0c0-1.3276367-1.0986328-2.4033203-2.4257812-2.4033203-1.328125,0-2.4267578,1.0756836-2.4267578,2.4033203,0,1.3505859,1.0986328,2.4262695,2.4267578,2.4262695,1.3271484,0,2.4257812-1.0756836,2.4257812-2.4262695Z"/>
    </g>
  </g>
</svg>